# Blender 4.4.1
# www.blender.org
mtllib rocket.mtl
o ロケット
v 0.000000 -1.200000 1.000000
v -0.000694 1.802596 1.003520
v -0.195090 -1.200000 0.980785
v -0.196444 1.802596 0.984241
v -0.382683 -1.200000 0.923880
v -0.384672 1.802596 0.927142
v -0.555570 -1.200000 0.831470
v -0.558143 1.802596 0.834420
v -0.707107 -1.200000 0.707107
v -0.710193 1.802596 0.709637
v -0.831470 -1.200000 0.555570
v -0.834976 1.802596 0.557587
v -0.923880 -1.200000 0.382683
v -0.927698 1.802596 0.384116
v -0.980785 -1.200000 0.195090
v -0.984797 1.802596 0.195888
v -1.000000 -1.200000 0.000000
v -1.004076 1.802596 0.000138
v -0.980785 -1.200000 -0.195090
v -0.984797 1.802596 -0.195612
v -0.923880 -1.200000 -0.382683
v -0.927698 1.802596 -0.383840
v -0.831470 -1.200000 -0.555570
v -0.834976 1.802596 -0.557311
v -0.707107 -1.200000 -0.707107
v -0.710193 1.802596 -0.709360
v -0.555570 -1.200000 -0.831470
v -0.558143 1.802596 -0.834144
v -0.382683 -1.200000 -0.923880
v -0.384672 1.802596 -0.926866
v -0.195090 -1.200000 -0.980785
v -0.196444 1.802596 -0.983965
v 0.000000 -1.200000 -1.000000
v -0.000694 1.802596 -1.003244
v 0.195090 -1.200000 -0.980785
v 0.195056 1.802596 -0.983965
v 0.383284 -1.207551 -0.926866
v 0.383284 1.802596 -0.926866
v 0.556755 -1.207551 -0.834144
v 0.556755 1.802596 -0.834144
v 0.708804 -1.207551 -0.709360
v 0.708804 1.802596 -0.709360
v 0.833588 -1.207551 -0.557311
v 0.833588 1.802596 -0.557311
v 0.926310 -1.207551 -0.383840
v 0.926310 1.802596 -0.383840
v 0.983408 -1.207551 -0.195612
v 0.983408 1.802596 -0.195612
v 1.002688 -1.207551 0.000138
v 1.002688 1.802596 0.000138
v 0.983408 -1.207551 0.195888
v 0.983408 1.802596 0.195888
v 0.926310 -1.207551 0.384116
v 0.926310 1.802596 0.384116
v 0.833588 -1.207551 0.557587
v 0.833588 1.802596 0.557587
v 0.708804 -1.207551 0.709637
v 0.708804 1.802596 0.709637
v 0.555570 -1.200000 0.831470
v 0.556755 1.802596 0.834420
v 0.382683 -1.200000 0.923880
v 0.383284 1.802596 0.927142
v 0.195090 -1.200000 0.980785
v 0.195056 1.802596 0.984241
v 0.000000 -1.500000 1.000000
v 0.000000 -1.200000 0.500000
v -0.195090 -1.500000 0.980785
v -0.097545 -1.200000 0.490393
v -0.382683 -1.500000 0.923880
v -0.191342 -1.200000 0.461940
v -0.555570 -1.500000 0.831470
v -0.277785 -1.200000 0.415735
v -0.707107 -1.500000 0.707107
v -0.353553 -1.200000 0.353553
v -0.831470 -1.500000 0.555570
v -0.415735 -1.200000 0.277785
v -0.923880 -1.500000 0.382683
v -0.461940 -1.200000 0.191342
v -0.980785 -1.500000 0.195090
v -0.490393 -1.200000 0.097545
v -1.000000 -1.500000 0.000000
v -0.500000 -1.200000 0.000000
v -0.980785 -1.500000 -0.195090
v -0.490393 -1.200000 -0.097545
v -0.923880 -1.500000 -0.382683
v -0.461940 -1.200000 -0.191342
v -0.831470 -1.500000 -0.555570
v -0.415735 -1.200000 -0.277785
v -0.707107 -1.500000 -0.707107
v -0.353553 -1.200000 -0.353553
v -0.555570 -1.500000 -0.831470
v -0.277785 -1.200000 -0.415735
v -0.382683 -1.500000 -0.923880
v -0.191342 -1.200000 -0.461940
v -0.195090 -1.500000 -0.980785
v -0.097545 -1.200000 -0.490393
v 0.000000 -1.500000 -1.000000
v 0.000000 -1.200000 -0.500000
v 0.195090 -1.500000 -0.980785
v 0.097545 -1.200000 -0.490393
v 0.382683 -1.500000 -0.923880
v 0.191342 -1.200000 -0.461940
v 0.555570 -1.500000 -0.831470
v 0.277785 -1.200000 -0.415735
v 0.707107 -1.500000 -0.707107
v 0.353553 -1.200000 -0.353553
v 0.831470 -1.500000 -0.555570
v 0.415735 -1.200000 -0.277785
v 0.923880 -1.500000 -0.382683
v 0.461940 -1.200000 -0.191342
v 0.980785 -1.500000 -0.195090
v 0.490393 -1.200000 -0.097545
v 1.000000 -1.500000 0.000000
v 0.500000 -1.200000 0.000000
v 0.980785 -1.500000 0.195090
v 0.490393 -1.200000 0.097545
v 0.923880 -1.500000 0.382683
v 0.461940 -1.200000 0.191342
v 0.831470 -1.500000 0.555570
v 0.415735 -1.200000 0.277785
v 0.707107 -1.500000 0.707107
v 0.353553 -1.200000 0.353553
v 0.555570 -1.500000 0.831470
v 0.277785 -1.200000 0.415735
v 0.382683 -1.500000 0.923880
v 0.191342 -1.200000 0.461940
v 0.195090 -1.500000 0.980785
v 0.097545 -1.200000 0.490393
v 0.000000 3.462939 0.555570
v 0.000000 2.911140 0.831470
v 0.000000 2.190181 0.980785
v 0.000000 1.800000 1.000000
v -0.038060 3.761570 0.191342
v -0.074658 3.647759 0.375330
v -0.108386 3.462939 0.544895
v -0.137950 3.214214 0.693520
v -0.162212 2.911140 0.815493
v -0.180240 2.565367 0.906127
v -0.191342 2.190181 0.961940
v -0.195090 1.800000 0.980785
v -0.074658 3.761570 0.180240
v -0.146447 3.647759 0.353553
v -0.212608 3.462939 0.513280
v -0.270598 3.214214 0.653281
v -0.318190 2.911140 0.768178
v -0.353553 2.565367 0.853553
v -0.375330 2.190181 0.906127
v -0.382683 1.800000 0.923879
v -0.108386 3.761570 0.162212
v -0.212608 3.647759 0.318190
v -0.308658 3.462939 0.461940
v -0.392847 3.214214 0.587938
v -0.461940 2.911140 0.691342
v -0.513280 2.565367 0.768178
v -0.544895 2.190181 0.815493
v -0.555570 1.800000 0.831469
v -0.137950 3.761570 0.137950
v -0.270598 3.647759 0.270598
v -0.392847 3.462939 0.392847
v -0.500000 3.214214 0.500000
v -0.587938 2.911140 0.587938
v -0.653281 2.565367 0.653281
v -0.693520 2.190181 0.693520
v -0.707107 1.800000 0.707107
v -0.162212 3.761570 0.108386
v -0.318190 3.647759 0.212608
v -0.461940 3.462939 0.308658
v -0.587938 3.214214 0.392847
v -0.691342 2.911140 0.461940
v -0.768178 2.565367 0.513280
v -0.815493 2.190181 0.544895
v -0.831470 1.800000 0.555570
v 0.000000 3.800000 0.000000
v -0.180240 3.761570 0.074658
v -0.353553 3.647759 0.146447
v -0.513280 3.462939 0.212607
v -0.653281 3.214214 0.270598
v -0.768178 2.911140 0.318190
v -0.853553 2.565367 0.353553
v -0.906127 2.190181 0.375330
v -0.923879 1.800000 0.382683
v -0.191342 3.761570 0.038060
v -0.375330 3.647759 0.074658
v -0.544895 3.462939 0.108386
v -0.693520 3.214214 0.137950
v -0.815493 2.911140 0.162212
v -0.906127 2.565367 0.180240
v -0.961940 2.190181 0.191342
v -0.980785 1.800000 0.195090
v -0.195090 3.761570 -0.000000
v -0.382683 3.647759 -0.000000
v -0.555570 3.462939 -0.000000
v -0.707107 3.214214 0.000000
v -0.831469 2.911140 -0.000000
v -0.923879 2.565367 0.000000
v -0.980785 2.190181 -0.000000
v -1.000000 1.800000 -0.000000
v -0.191342 3.761570 -0.038060
v -0.375330 3.647759 -0.074658
v -0.544895 3.462939 -0.108386
v -0.693520 3.214214 -0.137950
v -0.815493 2.911140 -0.162212
v -0.906127 2.565367 -0.180240
v -0.961940 2.190181 -0.191342
v -0.980785 1.800000 -0.195090
v -0.180240 3.761570 -0.074658
v -0.353553 3.647759 -0.146447
v -0.513280 3.462939 -0.212608
v -0.653281 3.214214 -0.270598
v -0.768178 2.911140 -0.318190
v -0.853553 2.565367 -0.353553
v -0.906127 2.190181 -0.375330
v -0.923879 1.800000 -0.382683
v -0.162212 3.761570 -0.108386
v -0.318190 3.647759 -0.212608
v -0.461940 3.462939 -0.308658
v -0.587938 3.214214 -0.392847
v -0.691341 2.911140 -0.461940
v -0.768178 2.565367 -0.513280
v -0.815493 2.190181 -0.544895
v -0.831469 1.800000 -0.555570
v -0.137950 3.761570 -0.137950
v -0.270598 3.647759 -0.270598
v -0.392847 3.462939 -0.392847
v -0.500000 3.214214 -0.500000
v -0.587938 2.911140 -0.587938
v -0.653281 2.565367 -0.653281
v -0.693520 2.190181 -0.693520
v -0.707106 1.800000 -0.707107
v -0.108386 3.761570 -0.162212
v -0.212607 3.647759 -0.318190
v -0.308658 3.462939 -0.461940
v -0.392847 3.214214 -0.587938
v -0.461940 2.911140 -0.691342
v -0.513280 2.565367 -0.768178
v -0.544895 2.190181 -0.815493
v -0.555570 1.800000 -0.831469
v -0.074658 3.761570 -0.180240
v -0.146447 3.647759 -0.353553
v -0.212607 3.462939 -0.513280
v -0.270598 3.214214 -0.653281
v -0.318189 2.911140 -0.768178
v -0.353553 2.565367 -0.853553
v -0.375330 2.190181 -0.906127
v -0.382683 1.800000 -0.923879
v -0.038060 3.761570 -0.191342
v -0.074658 3.647759 -0.375330
v -0.108386 3.462939 -0.544895
v -0.137950 3.214214 -0.693520
v -0.162212 2.911140 -0.815493
v -0.180240 2.565367 -0.906127
v -0.191342 2.190181 -0.961939
v -0.195090 1.800000 -0.980785
v 0.000000 3.761570 -0.195090
v 0.000000 3.647759 -0.382683
v 0.000000 3.462939 -0.555570
v 0.000000 3.214214 -0.707107
v 0.000000 2.911140 -0.831469
v -0.000000 2.565367 -0.923879
v 0.000000 2.190181 -0.980785
v 0.000000 1.800000 -0.999999
v 0.038060 3.761570 -0.191342
v 0.074658 3.647759 -0.375330
v 0.108386 3.462939 -0.544895
v 0.137950 3.214214 -0.693520
v 0.162212 2.911140 -0.815493
v 0.180240 2.565367 -0.906127
v 0.191342 2.190181 -0.961939
v 0.195091 1.800000 -0.980785
v 0.074658 3.761570 -0.180240
v 0.146447 3.647759 -0.353553
v 0.212608 3.462939 -0.513280
v 0.270598 3.214214 -0.653281
v 0.318190 2.911140 -0.768177
v 0.353553 2.565367 -0.853553
v 0.375330 2.190181 -0.906127
v 0.382683 1.800000 -0.923879
v 0.108386 3.761570 -0.162212
v 0.212608 3.647759 -0.318190
v 0.308658 3.462939 -0.461939
v 0.392847 3.214214 -0.587938
v 0.461940 2.911140 -0.691341
v 0.513280 2.565367 -0.768178
v 0.544895 2.190181 -0.815493
v 0.555570 1.800000 -0.831469
v 0.137950 3.761570 -0.137950
v 0.270598 3.647759 -0.270598
v 0.392847 3.462939 -0.392847
v 0.500000 3.214214 -0.500000
v 0.587938 2.911140 -0.587937
v 0.653281 2.565367 -0.653281
v 0.693520 2.190181 -0.693520
v 0.707106 1.800000 -0.707106
v 0.162212 3.761570 -0.108386
v 0.318190 3.647759 -0.212607
v 0.461940 3.462939 -0.308658
v 0.587938 3.214214 -0.392847
v 0.691341 2.911140 -0.461939
v 0.768177 2.565367 -0.513280
v 0.815493 2.190181 -0.544895
v 0.831469 1.800000 -0.555569
v 0.180240 3.761570 -0.074658
v 0.353553 3.647759 -0.146447
v 0.513280 3.462939 -0.212607
v 0.653281 3.214214 -0.270598
v 0.768177 2.911140 -0.318189
v 0.853553 2.565367 -0.353553
v 0.906127 2.190181 -0.375330
v 0.923879 1.800000 -0.382683
v 0.191342 3.761570 -0.038060
v 0.375330 3.647759 -0.074658
v 0.544895 3.462939 -0.108386
v 0.693520 3.214214 -0.137950
v 0.815493 2.911140 -0.162211
v 0.906127 2.565367 -0.180240
v 0.961939 2.190181 -0.191341
v 0.980784 1.800000 -0.195090
v 0.195090 3.761570 0.000000
v 0.382683 3.647759 0.000000
v 0.555570 3.462939 0.000000
v 0.707107 3.214214 0.000000
v 0.831469 2.911140 0.000000
v 0.923879 2.565367 0.000000
v 0.980785 2.190181 0.000000
v 0.999999 1.800000 0.000000
v 0.191342 3.761570 0.038060
v 0.375330 3.647759 0.074658
v 0.544895 3.462939 0.108386
v 0.693520 3.214214 0.137950
v 0.815493 2.911140 0.162212
v 0.906127 2.565367 0.180240
v 0.961939 2.190181 0.191342
v 0.980784 1.800000 0.195091
v 0.180240 3.761570 0.074658
v 0.353553 3.647759 0.146447
v 0.513279 3.462939 0.212607
v 0.653281 3.214214 0.270598
v 0.768177 2.911140 0.318190
v 0.853553 2.565367 0.353553
v 0.906127 2.190181 0.375330
v 0.923878 1.800000 0.382683
v 0.162212 3.761570 0.108386
v 0.318189 3.647759 0.212607
v 0.461939 3.462939 0.308658
v 0.587938 3.214214 0.392847
v 0.691341 2.911140 0.461940
v 0.768177 2.565367 0.513280
v 0.815493 2.190181 0.544895
v 0.831468 1.800000 0.555570
v 0.137950 3.761570 0.137950
v 0.270598 3.647759 0.270598
v 0.392847 3.462939 0.392847
v 0.500000 3.214214 0.500000
v 0.587937 2.911140 0.587938
v 0.653281 2.565367 0.653281
v 0.693519 2.190181 0.693520
v 0.707106 1.800000 0.707106
v 0.108386 3.761570 0.162212
v 0.212607 3.647759 0.318190
v 0.308658 3.462939 0.461939
v 0.392847 3.214214 0.587938
v 0.461939 2.911140 0.691341
v 0.513280 2.565367 0.768177
v 0.544895 2.190181 0.815493
v 0.555569 1.800000 0.831469
v 0.074658 3.761570 0.180240
v 0.146446 3.647759 0.353553
v 0.212607 3.462939 0.513279
v 0.270598 3.214214 0.653281
v 0.318189 2.911140 0.768177
v 0.353553 2.565367 0.853553
v 0.375330 2.190181 0.906127
v 0.382683 1.800000 0.923879
v 0.038060 3.761570 0.191342
v 0.074658 3.647759 0.375330
v 0.108386 3.462939 0.544895
v 0.137950 3.214214 0.693520
v 0.162211 2.911140 0.815493
v 0.180240 2.565367 0.906127
v 0.191341 2.190181 0.961939
v 0.195090 1.800000 0.980784
v -0.000000 3.761570 0.195090
v -0.000000 3.647759 0.382683
v -0.000000 3.214214 0.707107
v -0.000000 2.565367 0.923879
v -1.285650 -0.770852 -0.100000
v -0.950000 -0.100000 -0.100000
v -1.285650 -0.770852 0.100000
v -0.950000 -0.100000 0.100000
v -1.550000 -1.500000 -0.100000
v -1.550000 -1.500000 0.100000
v -1.550000 -0.693663 -0.100000
v -1.295573 -0.100000 -0.100000
v -1.295573 -0.100000 0.100000
v -1.550000 -0.693663 0.100000
v -1.400000 -1.500000 -0.100000
v -1.400000 -1.500000 0.100000
v -0.950000 -0.536205 -0.100000
v -1.400000 -1.500000 -0.100000
v -1.400000 -1.500000 0.100000
v -0.950000 -0.536205 0.100000
v -0.100000 -0.770852 1.285650
v -0.100000 -0.100000 0.950000
v 0.100000 -0.770852 1.285650
v 0.100000 -0.100000 0.950000
v -0.100000 -1.500000 1.550000
v 0.100000 -1.500000 1.550000
v -0.100000 -0.693663 1.550000
v -0.100000 -0.100000 1.295573
v 0.100000 -0.100000 1.295573
v 0.100000 -0.693663 1.550000
v -0.100000 -1.500000 1.400000
v 0.100000 -1.500000 1.400000
v -0.100000 -0.536205 0.950000
v -0.100000 -1.500000 1.400000
v 0.100000 -1.500000 1.400000
v 0.100000 -0.536205 0.950000
v 1.285650 -0.770852 0.100000
v 0.950000 -0.100000 0.100000
v 1.285650 -0.770852 -0.100000
v 0.950000 -0.100000 -0.100000
v 1.550000 -1.500000 0.100000
v 1.550000 -1.500000 -0.100000
v 1.550000 -0.693663 0.100000
v 1.295573 -0.100000 0.100000
v 1.295573 -0.100000 -0.100000
v 1.550000 -0.693663 -0.100000
v 1.400000 -1.500000 0.100000
v 1.400000 -1.500000 -0.100000
v 0.950000 -0.536205 0.100000
v 1.400000 -1.500000 0.100000
v 1.400000 -1.500000 -0.100000
v 0.950000 -0.536205 -0.100000
v 0.100000 -0.770852 -1.285650
v 0.100000 -0.100000 -0.950000
v -0.100000 -0.770852 -1.285650
v -0.100000 -0.100000 -0.950000
v 0.100000 -1.500000 -1.550000
v -0.100000 -1.500000 -1.550000
v 0.100000 -0.693663 -1.550000
v 0.100000 -0.100000 -1.295573
v -0.100000 -0.100000 -1.295573
v -0.100000 -0.693663 -1.550000
v 0.100000 -1.500000 -1.400000
v -0.100000 -1.500000 -1.400000
v 0.100000 -0.536205 -0.950000
v 0.100000 -1.500000 -1.400000
v -0.100000 -1.500000 -1.400000
v -0.100000 -0.536205 -0.950000
v 0.000000 1.410537 -0.869694
v 0.000000 1.310538 -0.869694
v 0.000000 1.410537 -1.069694
v 0.000000 1.310538 -1.069694
v -0.097545 1.400930 -0.869694
v -0.078036 1.302852 -0.869694
v -0.097545 1.400930 -1.069694
v -0.078036 1.302852 -1.069694
v -0.191342 1.372477 -0.869694
v -0.153073 1.280089 -0.869694
v -0.191342 1.372477 -1.069694
v -0.153073 1.280089 -1.069694
v -0.277785 1.326272 -0.869694
v -0.222228 1.243125 -0.869694
v -0.277785 1.326272 -1.069694
v -0.222228 1.243125 -1.069694
v -0.353553 1.264091 -0.869694
v -0.282843 1.193380 -0.869694
v -0.353553 1.264091 -1.069694
v -0.282843 1.193380 -1.069694
v -0.415735 1.188323 -0.869694
v -0.332588 1.132766 -0.869694
v -0.415735 1.188323 -1.069694
v -0.332588 1.132766 -1.069694
v -0.369552 1.063611 -0.869694
v -0.461940 1.101879 -0.869694
v -0.461940 1.101879 -1.069694
v -0.369552 1.063611 -1.069694
v -0.392314 0.988574 -0.869694
v -0.490393 1.008083 -0.869694
v -0.392314 0.988574 -1.069694
v -0.490393 1.008083 -1.069694
v -0.400000 0.910537 -0.869694
v -0.500000 0.910537 -0.869694
v -0.500000 0.910537 -1.069694
v -0.400000 0.910537 -1.069694
v -0.490393 0.812992 -0.869694
v -0.392314 0.832501 -0.869694
v -0.490393 0.812992 -1.069694
v -0.392314 0.832501 -1.069694
v -0.461940 0.719196 -0.869694
v -0.369552 0.757464 -0.869694
v -0.461940 0.719196 -1.069694
v -0.369552 0.757464 -1.069694
v -0.415735 0.632752 -0.869694
v -0.332588 0.688309 -0.869694
v -0.415735 0.632752 -1.069694
v -0.332588 0.688309 -1.069694
v -0.353553 0.556984 -0.869694
v -0.282843 0.627695 -0.869694
v -0.353553 0.556984 -1.069694
v -0.282843 0.627695 -1.069694
v -0.277785 0.494803 -0.869694
v -0.222228 0.577950 -0.869694
v -0.277785 0.494803 -1.069694
v -0.222228 0.577950 -1.069694
v -0.191342 0.448598 -0.869694
v -0.153073 0.540986 -0.869694
v -0.191342 0.448598 -1.069694
v -0.153073 0.540986 -1.069694
v -0.097545 0.420145 -0.869694
v -0.078036 0.518223 -0.869694
v -0.097545 0.420145 -1.069694
v -0.078036 0.518223 -1.069694
v 0.000000 0.410537 -0.869694
v 0.000000 0.510538 -0.869694
v 0.000000 0.510538 -1.069694
v 0.000000 0.410537 -1.069694
v 0.078036 0.518223 -0.869694
v 0.097545 0.420145 -0.869694
v 0.097545 0.420145 -1.069694
v 0.078036 0.518223 -1.069694
v 0.153073 0.540986 -0.869694
v 0.191342 0.448598 -0.869694
v 0.191342 0.448598 -1.069694
v 0.153073 0.540986 -1.069694
v 0.222228 0.577950 -0.869694
v 0.277785 0.494803 -0.869694
v 0.277785 0.494803 -1.069694
v 0.222228 0.577950 -1.069694
v 0.282843 0.627695 -0.869694
v 0.353553 0.556984 -0.869694
v 0.353553 0.556984 -1.069694
v 0.282843 0.627695 -1.069694
v 0.332588 0.688309 -0.869694
v 0.415735 0.632752 -0.869694
v 0.415735 0.632752 -1.069694
v 0.332588 0.688309 -1.069694
v 0.369552 0.757464 -0.869694
v 0.461940 0.719196 -0.869694
v 0.369552 0.757464 -1.069694
v 0.461940 0.719196 -1.069694
v 0.490393 0.812992 -0.869694
v 0.392314 0.832501 -0.869694
v 0.490393 0.812992 -1.069694
v 0.392314 0.832501 -1.069694
v 0.400000 0.910537 -0.869694
v 0.500000 0.910537 -0.869694
v 0.500000 0.910537 -1.069694
v 0.400000 0.910537 -1.069694
v 0.392314 0.988574 -0.869694
v 0.490393 1.008083 -0.869694
v 0.490393 1.008083 -1.069694
v 0.392314 0.988574 -1.069694
v 0.461940 1.101879 -0.869694
v 0.369552 1.063611 -0.869694
v 0.461940 1.101879 -1.069694
v 0.369552 1.063611 -1.069694
v 0.332588 1.132766 -0.869694
v 0.415735 1.188323 -0.869694
v 0.415735 1.188323 -1.069694
v 0.332588 1.132766 -1.069694
v 0.353553 1.264091 -0.869694
v 0.282843 1.193380 -0.869694
v 0.282843 1.193380 -1.069694
v 0.353553 1.264091 -1.069694
v 0.277785 1.326272 -0.869694
v 0.222228 1.243125 -0.869694
v 0.222228 1.243125 -1.069694
v 0.277785 1.326272 -1.069694
v 0.191342 1.372477 -0.869694
v 0.153073 1.280089 -0.869694
v 0.153073 1.280089 -1.069694
v 0.191342 1.372477 -1.069694
v 0.097545 1.400930 -0.869694
v 0.078036 1.302852 -0.869694
v 0.078036 1.302852 -1.069694
v 0.097545 1.400930 -1.069694
v 0.000000 1.310538 -0.919694
v 0.000000 1.310538 -1.019694
v -0.078036 1.302852 -0.919694
v -0.078036 1.302852 -1.019694
v -0.153073 1.280089 -0.919694
v -0.153073 1.280089 -1.019694
v -0.222228 1.243125 -0.919694
v -0.222228 1.243125 -1.019694
v -0.282843 1.193380 -0.919694
v -0.282843 1.193380 -1.019694
v -0.332588 1.132766 -0.919694
v -0.332588 1.132766 -1.019694
v -0.369552 1.063611 -0.919694
v -0.369552 1.063611 -1.019694
v -0.392314 0.988574 -0.919694
v -0.392314 0.988574 -1.019694
v -0.400000 0.910537 -0.919694
v -0.400000 0.910537 -1.019694
v -0.392314 0.832501 -0.919694
v -0.392314 0.832501 -1.019694
v -0.369552 0.757464 -0.919694
v -0.369552 0.757464 -1.019694
v -0.332588 0.688309 -0.919694
v -0.332588 0.688309 -1.019694
v -0.282843 0.627695 -0.919694
v -0.282843 0.627695 -1.019694
v -0.222228 0.577950 -0.919694
v -0.222228 0.577950 -1.019694
v -0.153073 0.540986 -0.919694
v -0.153073 0.540986 -1.019694
v -0.078036 0.518223 -0.919694
v -0.078036 0.518223 -1.019694
v 0.000000 0.510538 -0.919694
v 0.000000 0.510538 -1.019694
v 0.078036 0.518223 -0.919694
v 0.078036 0.518223 -1.019694
v 0.153073 0.540986 -0.919694
v 0.153073 0.540986 -1.019694
v 0.222228 0.577950 -0.919694
v 0.222228 0.577950 -1.019694
v 0.282843 0.627695 -0.919694
v 0.282843 0.627695 -1.019694
v 0.332588 0.688309 -0.919694
v 0.332588 0.688309 -1.019694
v 0.369552 0.757464 -0.919694
v 0.369552 0.757464 -1.019694
v 0.392314 0.832501 -0.919694
v 0.392314 0.832501 -1.019694
v 0.400000 0.910537 -0.919694
v 0.400000 0.910537 -1.019694
v 0.392314 0.988574 -0.919694
v 0.392314 0.988574 -1.019694
v 0.369552 1.063611 -0.919694
v 0.369552 1.063611 -1.019694
v 0.332588 1.132766 -0.919694
v 0.332588 1.132766 -1.019694
v 0.282843 1.193380 -0.919694
v 0.282843 1.193380 -1.019694
v 0.222228 1.243125 -0.919694
v 0.222228 1.243125 -1.019694
v 0.153073 1.280089 -0.919694
v 0.153073 1.280089 -1.019694
v 0.078036 1.302852 -0.919694
v 0.078036 1.302852 -1.019694
vn -0.0980 -0.0012 0.9952
vn -0.2903 -0.0012 0.9569
vn -0.4714 -0.0013 0.8819
vn -0.6344 -0.0013 0.7730
vn -0.7730 -0.0013 0.6344
vn -0.8819 -0.0013 0.4714
vn -0.9569 -0.0014 0.2903
vn -0.9952 -0.0014 0.0980
vn -0.9952 -0.0013 -0.0980
vn -0.9569 -0.0013 -0.2903
vn -0.8819 -0.0013 -0.4714
vn -0.7730 -0.0013 -0.6344
vn -0.6344 -0.0012 -0.7730
vn -0.4714 -0.0012 -0.8819
vn -0.2903 -0.0011 -0.9569
vn -0.0980 -0.0011 -0.9952
vn 0.0980 -0.0011 -0.9952
vn 0.2754 -0.0000 -0.9613
vn 0.4714 -0.0000 -0.8819
vn 0.6344 -0.0000 -0.7730
vn 0.7730 -0.0000 -0.6344
vn 0.8819 -0.0000 -0.4714
vn 0.9569 -0.0000 -0.2903
vn 0.9952 -0.0000 -0.0980
vn 0.9952 -0.0000 0.0980
vn 0.9569 -0.0000 0.2903
vn 0.8819 -0.0000 0.4714
vn 0.7730 -0.0000 0.6344
vn 0.6223 -0.0000 0.7827
vn 0.4714 -0.0011 0.8819
vn -0.0000 1.0000 -0.0000
vn 0.2903 -0.0011 0.9569
vn 0.0980 -0.0011 0.9952
vn -0.0074 -1.0000 0.0015
vn -0.0506 0.8564 0.5138
vn -0.1499 0.8564 0.4941
vn -0.2434 0.8564 0.4554
vn -0.3276 0.8564 0.3991
vn -0.3991 0.8564 0.3276
vn -0.4554 0.8564 0.2434
vn -0.4941 0.8564 0.1499
vn -0.5138 0.8564 0.0506
vn -0.5138 0.8564 -0.0506
vn -0.4941 0.8564 -0.1499
vn -0.4554 0.8564 -0.2434
vn -0.3991 0.8564 -0.3276
vn -0.3276 0.8564 -0.3991
vn -0.2434 0.8564 -0.4554
vn -0.1499 0.8564 -0.4941
vn -0.0506 0.8564 -0.5138
vn 0.0506 0.8564 -0.5138
vn 0.1499 0.8564 -0.4941
vn 0.2434 0.8564 -0.4554
vn 0.3276 0.8564 -0.3991
vn 0.3991 0.8564 -0.3276
vn 0.4554 0.8564 -0.2434
vn 0.4941 0.8564 -0.1499
vn 0.5138 0.8564 -0.0506
vn 0.5138 0.8564 0.0506
vn 0.4941 0.8564 0.1499
vn 0.4554 0.8564 0.2434
vn 0.3991 0.8564 0.3276
vn 0.3276 0.8564 0.3991
vn 0.2434 0.8564 0.4554
vn 0.1499 0.8564 0.4941
vn 0.0506 0.8564 0.5138
vn -0.0000 -1.0000 -0.0000
vn -0.0510 0.8538 0.5180
vn -0.0717 0.6814 0.7284
vn -0.0838 0.5185 0.8510
vn -0.0907 0.3781 0.9213
vn -0.0947 0.2570 0.9617
vn -0.0969 0.1493 0.9840
vn -0.0979 0.0489 0.9940
vn -0.0190 0.9810 0.1932
vn -0.2899 0.0490 0.9558
vn -0.0564 0.9810 0.1858
vn -0.1511 0.8538 0.4981
vn -0.2125 0.6814 0.7004
vn -0.2482 0.5185 0.8183
vn -0.2687 0.3781 0.8859
vn -0.2805 0.2570 0.9248
vn -0.2870 0.1493 0.9462
vn -0.4364 0.3781 0.8165
vn -0.4556 0.2570 0.8523
vn -0.4661 0.1493 0.8720
vn -0.4708 0.0489 0.8809
vn -0.0915 0.9810 0.1712
vn -0.2454 0.8538 0.4591
vn -0.3450 0.6814 0.6455
vn -0.4031 0.5185 0.7541
vn -0.1232 0.9810 0.1501
vn -0.3302 0.8538 0.4024
vn -0.4643 0.6814 0.5658
vn -0.5425 0.5185 0.6610
vn -0.5873 0.3781 0.7156
vn -0.6131 0.2570 0.7470
vn -0.6273 0.1493 0.7644
vn -0.6336 0.0489 0.7721
vn -0.7156 0.3781 0.5873
vn -0.7470 0.2570 0.6131
vn -0.7644 0.1493 0.6273
vn -0.7721 0.0489 0.6336
vn -0.1501 0.9810 0.1232
vn -0.4024 0.8538 0.3302
vn -0.5658 0.6814 0.4643
vn -0.6610 0.5185 0.5425
vn -0.4591 0.8538 0.2454
vn -0.6455 0.6814 0.3450
vn -0.7541 0.5185 0.4031
vn -0.8165 0.3781 0.4364
vn -0.8523 0.2570 0.4556
vn -0.8720 0.1493 0.4661
vn -0.8809 0.0489 0.4708
vn -0.1712 0.9810 0.0915
vn -0.9248 0.2570 0.2805
vn -0.9462 0.1493 0.2870
vn -0.9558 0.0489 0.2899
vn -0.1858 0.9810 0.0564
vn -0.4981 0.8538 0.1511
vn -0.7004 0.6814 0.2125
vn -0.8183 0.5185 0.2482
vn -0.8859 0.3781 0.2687
vn -0.5180 0.8538 0.0510
vn -0.7284 0.6814 0.0717
vn -0.8510 0.5185 0.0838
vn -0.9213 0.3781 0.0907
vn -0.9617 0.2570 0.0947
vn -0.9840 0.1493 0.0969
vn -0.9940 0.0489 0.0979
vn -0.1932 0.9810 0.0190
vn -0.9617 0.2570 -0.0947
vn -0.9840 0.1493 -0.0969
vn -0.9940 0.0489 -0.0979
vn -0.1932 0.9810 -0.0190
vn -0.5180 0.8538 -0.0510
vn -0.7284 0.6814 -0.0717
vn -0.8510 0.5185 -0.0838
vn -0.9213 0.3781 -0.0907
vn -0.7004 0.6814 -0.2125
vn -0.8183 0.5185 -0.2482
vn -0.8859 0.3781 -0.2687
vn -0.9248 0.2570 -0.2805
vn -0.9462 0.1493 -0.2870
vn -0.9558 0.0489 -0.2899
vn -0.1858 0.9810 -0.0564
vn -0.4981 0.8538 -0.1511
vn -0.8720 0.1493 -0.4661
vn -0.8809 0.0489 -0.4708
vn -0.1712 0.9810 -0.0915
vn -0.4591 0.8538 -0.2454
vn -0.6455 0.6814 -0.3450
vn -0.7541 0.5185 -0.4031
vn -0.8165 0.3781 -0.4364
vn -0.8523 0.2570 -0.4556
vn -0.6610 0.5185 -0.5425
vn -0.7156 0.3781 -0.5873
vn -0.7470 0.2570 -0.6131
vn -0.7644 0.1493 -0.6273
vn -0.7721 0.0489 -0.6336
vn -0.1501 0.9810 -0.1232
vn -0.4024 0.8538 -0.3302
vn -0.5658 0.6814 -0.4643
vn -0.6336 0.0489 -0.7721
vn -0.1232 0.9810 -0.1501
vn -0.3302 0.8538 -0.4024
vn -0.4643 0.6814 -0.5658
vn -0.5425 0.5185 -0.6610
vn -0.5873 0.3781 -0.7156
vn -0.6131 0.2570 -0.7470
vn -0.6273 0.1493 -0.7644
vn -0.4031 0.5185 -0.7541
vn -0.4364 0.3781 -0.8165
vn -0.4556 0.2570 -0.8523
vn -0.4661 0.1493 -0.8720
vn -0.4708 0.0489 -0.8809
vn -0.0915 0.9810 -0.1712
vn -0.2454 0.8538 -0.4591
vn -0.3450 0.6814 -0.6455
vn -0.2899 0.0489 -0.9558
vn -0.0564 0.9810 -0.1858
vn -0.1511 0.8538 -0.4981
vn -0.2125 0.6814 -0.7004
vn -0.2482 0.5185 -0.8183
vn -0.2687 0.3781 -0.8859
vn -0.2805 0.2570 -0.9248
vn -0.2870 0.1493 -0.9462
vn -0.0907 0.3781 -0.9213
vn -0.0947 0.2570 -0.9617
vn -0.0969 0.1493 -0.9840
vn -0.0979 0.0489 -0.9940
vn -0.0190 0.9810 -0.1932
vn -0.0510 0.8538 -0.5180
vn -0.0717 0.6814 -0.7284
vn -0.0838 0.5185 -0.8510
vn 0.0190 0.9810 -0.1932
vn 0.0510 0.8538 -0.5180
vn 0.0717 0.6814 -0.7284
vn 0.0838 0.5185 -0.8510
vn 0.0907 0.3781 -0.9213
vn 0.0947 0.2570 -0.9617
vn 0.0969 0.1493 -0.9840
vn 0.0979 0.0489 -0.9940
vn 0.2687 0.3781 -0.8859
vn 0.2805 0.2570 -0.9248
vn 0.2870 0.1493 -0.9462
vn 0.2899 0.0489 -0.9558
vn 0.0564 0.9810 -0.1858
vn 0.1511 0.8538 -0.4981
vn 0.2125 0.6814 -0.7004
vn 0.2482 0.5185 -0.8183
vn 0.2454 0.8538 -0.4591
vn 0.3450 0.6814 -0.6455
vn 0.4031 0.5185 -0.7541
vn 0.4364 0.3781 -0.8165
vn 0.4556 0.2570 -0.8523
vn 0.4661 0.1493 -0.8720
vn 0.4708 0.0489 -0.8809
vn 0.0915 0.9810 -0.1712
vn 0.6131 0.2570 -0.7470
vn 0.6273 0.1493 -0.7644
vn 0.6336 0.0489 -0.7721
vn 0.1232 0.9810 -0.1501
vn 0.3302 0.8538 -0.4024
vn 0.4643 0.6814 -0.5658
vn 0.5425 0.5185 -0.6610
vn 0.5873 0.3781 -0.7156
vn 0.5658 0.6814 -0.4643
vn 0.6610 0.5185 -0.5425
vn 0.7156 0.3781 -0.5873
vn 0.7470 0.2570 -0.6131
vn 0.7644 0.1493 -0.6273
vn 0.7721 0.0489 -0.6336
vn 0.1501 0.9810 -0.1232
vn 0.4024 0.8538 -0.3302
vn 0.8720 0.1493 -0.4661
vn 0.8809 0.0489 -0.4708
vn 0.1712 0.9810 -0.0915
vn 0.4591 0.8538 -0.2454
vn 0.6455 0.6814 -0.3450
vn 0.7541 0.5185 -0.4031
vn 0.8165 0.3781 -0.4364
vn 0.8523 0.2570 -0.4556
vn 0.7004 0.6814 -0.2125
vn 0.8183 0.5185 -0.2482
vn 0.8859 0.3781 -0.2687
vn 0.9248 0.2570 -0.2805
vn 0.9462 0.1493 -0.2870
vn 0.9558 0.0489 -0.2899
vn 0.1858 0.9810 -0.0564
vn 0.4981 0.8538 -0.1511
vn 0.9840 0.1493 -0.0969
vn 0.9940 0.0489 -0.0979
vn 0.1932 0.9810 -0.0190
vn 0.5180 0.8538 -0.0510
vn 0.7284 0.6814 -0.0717
vn 0.8510 0.5185 -0.0838
vn 0.9213 0.3781 -0.0907
vn 0.9617 0.2570 -0.0947
vn 0.8510 0.5185 0.0838
vn 0.9213 0.3781 0.0907
vn 0.9617 0.2570 0.0947
vn 0.9840 0.1493 0.0969
vn 0.9940 0.0489 0.0979
vn 0.1932 0.9810 0.0190
vn 0.5180 0.8538 0.0510
vn 0.7284 0.6814 0.0717
vn 0.9558 0.0489 0.2899
vn 0.1858 0.9810 0.0564
vn 0.4981 0.8538 0.1511
vn 0.7004 0.6814 0.2125
vn 0.8183 0.5185 0.2482
vn 0.8859 0.3781 0.2687
vn 0.9248 0.2570 0.2805
vn 0.9462 0.1493 0.2870
vn 0.7541 0.5185 0.4031
vn 0.8165 0.3781 0.4364
vn 0.8523 0.2570 0.4556
vn 0.8720 0.1493 0.4661
vn 0.8809 0.0489 0.4708
vn 0.1712 0.9810 0.0915
vn 0.4591 0.8538 0.2454
vn 0.6455 0.6814 0.3450
vn 0.7721 0.0489 0.6336
vn 0.1501 0.9810 0.1232
vn 0.4024 0.8538 0.3302
vn 0.5658 0.6814 0.4643
vn 0.6610 0.5185 0.5425
vn 0.7156 0.3781 0.5873
vn 0.7470 0.2570 0.6131
vn 0.7644 0.1493 0.6273
vn 0.5873 0.3781 0.7156
vn 0.6131 0.2570 0.7470
vn 0.6273 0.1493 0.7644
vn 0.6336 0.0489 0.7721
vn 0.1232 0.9810 0.1501
vn 0.3302 0.8538 0.4024
vn 0.4643 0.6814 0.5658
vn 0.5425 0.5185 0.6610
vn 0.2454 0.8538 0.4591
vn 0.3450 0.6814 0.6455
vn 0.4031 0.5185 0.7541
vn 0.4364 0.3781 0.8165
vn 0.4556 0.2570 0.8523
vn 0.4661 0.1493 0.8720
vn 0.4708 0.0489 0.8809
vn 0.0915 0.9810 0.1712
vn 0.2805 0.2570 0.9248
vn 0.2870 0.1493 0.9462
vn 0.2899 0.0489 0.9558
vn 0.0564 0.9810 0.1858
vn 0.1511 0.8538 0.4981
vn 0.2125 0.6814 0.7004
vn 0.2482 0.5185 0.8183
vn 0.2687 0.3781 0.8859
vn 0.0510 0.8538 0.5180
vn 0.0717 0.6814 0.7284
vn 0.0838 0.5185 0.8510
vn 0.0907 0.3781 0.9213
vn 0.0947 0.2570 0.9617
vn 0.0969 0.1493 0.9840
vn 0.0979 0.0489 0.9940
vn 0.0190 0.9810 0.1932
vn -0.0000 -0.0000 1.0000
vn 0.9879 -0.1549 -0.0000
vn -1.0000 -0.0000 -0.0000
vn -0.9191 0.3939 -0.0000
vn -0.0000 -0.0000 -1.0000
vn 0.5730 -0.8196 -0.0000
vn 1.0000 -0.0000 -0.0000
vn -0.0000 -0.1549 -0.9879
vn -0.0000 0.3939 0.9191
vn -0.0000 -0.8196 -0.5730
vn -0.9879 -0.1549 -0.0000
vn 0.9191 0.3939 -0.0000
vn -0.5730 -0.8196 -0.0000
vn -0.0000 -0.1549 0.9879
vn -0.0000 0.3939 -0.9191
vn -0.0000 -0.8196 0.5730
vn -0.0980 0.9952 -0.0000
vn -0.2903 0.9569 -0.0000
vn -0.4714 0.8819 -0.0000
vn -0.6344 0.7730 -0.0000
vn -0.7730 0.6344 -0.0000
vn -0.8819 0.4714 -0.0000
vn -0.9569 0.2903 -0.0000
vn -0.9952 0.0980 -0.0000
vn -0.9952 -0.0980 -0.0000
vn -0.9569 -0.2903 -0.0000
vn -0.8819 -0.4714 -0.0000
vn -0.7730 -0.6344 -0.0000
vn -0.6344 -0.7730 -0.0000
vn -0.4714 -0.8819 -0.0000
vn -0.2903 -0.9569 -0.0000
vn -0.0980 -0.9952 -0.0000
vn 0.0980 -0.9952 -0.0000
vn 0.2903 -0.9569 -0.0000
vn 0.4714 -0.8819 -0.0000
vn 0.6344 -0.7730 -0.0000
vn 0.7730 -0.6344 -0.0000
vn 0.8819 -0.4714 -0.0000
vn 0.9569 -0.2903 -0.0000
vn 0.9952 -0.0980 -0.0000
vn 0.9952 0.0980 -0.0000
vn 0.9569 0.2903 -0.0000
vn 0.8819 0.4714 -0.0000
vn 0.7730 0.6344 -0.0000
vn 0.6344 0.7730 -0.0000
vn 0.4714 0.8819 -0.0000
vn 0.2903 0.9569 -0.0000
vn 0.0980 0.9952 -0.0000
vn 0.2903 -0.0010 -0.9569
vn 0.6344 -0.0010 0.7730
vn -0.0851 -0.9836 0.1591
vn -0.1395 -0.9836 -0.1145
vn -0.0000 -0.9987 -0.0514
vn 0.0197 -0.9987 0.0475
vn -0.0115 -0.9999 0.0077
vn -0.0136 -0.9999 -0.0027
vn -0.0979 0.0490 0.9940
vt 0.445351 0.254434
vt 0.186917 0.275138
vt 0.186666 0.258249
vt 0.445602 0.271380
vt 0.187164 0.292027
vt 0.445850 0.288326
vt 0.187407 0.308916
vt 0.446094 0.305272
vt 0.187645 0.325805
vt 0.446333 0.322219
vt 0.187879 0.342694
vt 0.446568 0.339165
vt 0.188109 0.359584
vt 0.446799 0.356112
vt 0.188334 0.376473
vt 0.447246 0.390005
vt 0.188555 0.393363
vt 0.447463 0.406951
vt 0.188771 0.410252
vt 0.447676 0.423898
vt 0.188983 0.427142
vt 0.447884 0.440845
vt 0.189190 0.444031
vt 0.448087 0.457792
vt 0.189394 0.460921
vt 0.448287 0.474738
vt 0.189592 0.477811
vt 0.448483 0.491685
vt 0.189787 0.494701
vt 0.448674 0.508632
vt 0.189978 0.511590
vt 0.448862 0.525579
vt 0.190166 0.528480
vt 0.449047 0.542526
vt 0.190349 0.545370
vt 0.449228 0.559473
vt 0.189879 0.562244
vt 0.441642 0.017190
vt 0.182577 0.038213
vt 0.182310 0.021267
vt 0.441908 0.034136
vt 0.182843 0.055159
vt 0.442174 0.051082
vt 0.183110 0.072105
vt 0.442441 0.068028
vt 0.183376 0.089051
vt 0.442707 0.084974
vt 0.183642 0.105997
vt 0.442974 0.101920
vt 0.183909 0.122943
vt 0.443240 0.118866
vt 0.184175 0.139889
vt 0.443506 0.135812
vt 0.184442 0.156835
vt 0.443773 0.152758
vt 0.184708 0.173781
vt 0.444039 0.169704
vt 0.184974 0.190727
vt 0.444306 0.186650
vt 0.185890 0.207582
vt 0.444572 0.203596
vt 0.186152 0.224471
vt 0.525778 0.464139
vt 0.621113 0.540690
vt 0.444835 0.220542
vt 0.186411 0.241360
vt 0.445095 0.237488
vt 0.182058 0.512789
vt 0.141540 0.627885
vt 0.026556 0.587054
vt 0.541526 0.355020
vt 0.554194 0.405084
vt 0.537303 0.405084
vt 0.680696 0.784956
vt 0.693364 0.835019
vt 0.676473 0.835019
vt 0.881995 0.194726
vt 0.894663 0.244790
vt 0.877772 0.244790
vt 0.931941 0.107745
vt 0.919273 0.157809
vt 0.915050 0.107745
vt 0.447089 0.648271
vt 0.459758 0.698334
vt 0.442867 0.698334
vt 0.127492 0.857386
vt 0.114823 0.807322
vt 0.131714 0.807322
vt 0.080273 0.807682
vt 0.067605 0.757619
vt 0.084496 0.757619
vt 0.017902 0.874782
vt 0.030570 0.824718
vt 0.034792 0.874782
vt 0.022124 0.650756
vt 0.034792 0.700820
vt 0.017901 0.700820
vt 0.075556 0.854541
vt 0.088224 0.904604
vt 0.071333 0.904604
vt 0.076798 0.670638
vt 0.089466 0.720701
vt 0.072575 0.720701
vt 0.930203 0.331771
vt 0.917535 0.281708
vt 0.934426 0.281708
vt 0.495298 0.316860
vt 0.482629 0.266796
vt 0.499520 0.266796
vt 0.686656 0.922000
vt 0.673988 0.871937
vt 0.690879 0.871937
vt 0.227151 0.884363
vt 0.239819 0.934426
vt 0.222928 0.934426
vt 0.862114 0.018279
vt 0.874782 0.068342
vt 0.857891 0.068342
vt 0.828311 0.922000
vt 0.815643 0.871937
vt 0.832534 0.871937
vt 0.130229 0.720341
vt 0.142898 0.770405
vt 0.126007 0.770405
vt 0.879752 0.107745
vt 0.867084 0.157809
vt 0.862861 0.107745
vt 0.910080 0.068342
vt 0.922748 0.018279
vt 0.926971 0.068342
vt 0.641175 0.832174
vt 0.628507 0.882238
vt 0.624285 0.832174
vt 0.533818 0.936911
vt 0.521150 0.886848
vt 0.538041 0.886848
vt 0.899391 0.864481
vt 0.912059 0.914545
vt 0.895169 0.914545
vt 0.532333 0.318103
vt 0.545001 0.268039
vt 0.549224 0.318103
vt 0.137432 0.944367
vt 0.124764 0.894304
vt 0.141655 0.894304
vt 0.017901 0.444846
vt 0.030570 0.394783
vt 0.034792 0.444846
vt 0.034792 0.737737
vt 0.022124 0.787801
vt 0.017902 0.737737
vt 0.907837 0.759221
vt 0.895169 0.709158
vt 0.912060 0.709158
vt 0.809925 0.018279
vt 0.822593 0.068342
vt 0.805702 0.068342
vt 0.489337 0.356263
vt 0.502005 0.406326
vt 0.485114 0.406326
vt 0.492929 0.160917
vt 0.553562 0.154945
vt 0.559534 0.215578
vt 0.584764 0.944367
vt 0.572096 0.894304
vt 0.588987 0.894304
vt 0.867832 0.387688
vt 0.880500 0.337624
vt 0.884723 0.387688
vt 0.979592 0.490653
vt 0.922151 0.598117
vt 0.814686 0.540676
vt 0.664373 0.297468
vt 0.654540 0.279806
vt 0.668623 0.293400
vt 0.677238 0.311918
vt 0.682773 0.306205
vt 0.692120 0.327261
vt 0.698865 0.319684
vt 0.717794 0.334446
vt 0.709906 0.343856
vt 0.731092 0.362456
vt 0.740193 0.350857
vt 0.766597 0.369313
vt 0.756277 0.383279
vt 0.797692 0.390703
vt 0.785452 0.406734
vt 0.651916 0.282328
vt 0.640178 0.267490
vt 0.808780 0.373572
vt 0.641787 0.265954
vt 0.656956 0.277108
vt 0.672336 0.288933
vt 0.687616 0.300019
vt 0.704702 0.311654
vt 0.724646 0.324406
vt 0.748103 0.338618
vt 0.775772 0.354719
vt 0.730495 0.313909
vt 0.754851 0.325859
vt 0.783866 0.339550
vt 0.817972 0.355304
vt 0.642810 0.264828
vt 0.659045 0.274173
vt 0.675538 0.284153
vt 0.691706 0.293459
vt 0.709661 0.303211
vt 0.643703 0.263578
vt 0.660790 0.271040
vt 0.678185 0.279104
vt 0.695068 0.286590
vt 0.713722 0.294423
vt 0.735323 0.303020
vt 0.760551 0.312701
vt 0.790526 0.323745
vt 0.825475 0.336500
vt 0.716930 0.285379
vt 0.739085 0.291794
vt 0.765013 0.299120
vt 0.795623 0.307408
vt 0.831801 0.317298
vt 0.644464 0.262232
vt 0.662174 0.267752
vt 0.680224 0.273834
vt 0.697727 0.279473
vt 0.681715 0.268414
vt 0.699600 0.272172
vt 0.719221 0.276108
vt 0.741752 0.280337
vt 0.768225 0.285217
vt 0.799262 0.290710
vt 0.836490 0.297449
vt 0.645053 0.260797
vt 0.663189 0.264345
vt 0.769993 0.271093
vt 0.801486 0.273756
vt 0.839452 0.277055
vt 0.645479 0.259306
vt 0.663826 0.260862
vt 0.682616 0.262893
vt 0.700713 0.264752
vt 0.720523 0.266690
vt 0.743322 0.268726
vt 0.682922 0.257325
vt 0.701064 0.257280
vt 0.720951 0.257220
vt 0.743769 0.257037
vt 0.770438 0.256910
vt 0.802397 0.256630
vt 0.839989 0.256443
vt 0.645735 0.257783
vt 0.664081 0.257341
vt 0.769715 0.242735
vt 0.801386 0.239485
vt 0.839164 0.235901
vt 0.645817 0.256250
vt 0.663952 0.253824
vt 0.682635 0.251767
vt 0.700645 0.249822
vt 0.720443 0.247752
vt 0.743105 0.245376
vt 0.699459 0.242448
vt 0.718948 0.238389
vt 0.741345 0.233817
vt 0.767635 0.228666
vt 0.798815 0.222488
vt 0.836427 0.215345
vt 0.645725 0.254732
vt 0.663441 0.250352
vt 0.681756 0.246274
vt 0.764230 0.214825
vt 0.794624 0.205797
vt 0.831745 0.194924
vt 0.645462 0.253252
vt 0.662553 0.246963
vt 0.680295 0.240903
vt 0.697513 0.235223
vt 0.716532 0.229212
vt 0.738478 0.222439
vt 0.713261 0.220253
vt 0.734515 0.211358
vt 0.759546 0.201327
vt 0.789099 0.189499
vt 0.824643 0.175235
vt 0.645048 0.251831
vt 0.661297 0.243702
vt 0.678224 0.235722
vt 0.694847 0.228205
vt 0.782047 0.173791
vt 0.815900 0.156488
vt 0.644695 0.251196
vt 0.659555 0.240662
vt 0.675613 0.230769
vt 0.691445 0.221459
vt 0.709087 0.211593
vt 0.729500 0.200661
vt 0.753624 0.188280
vt 0.703996 0.203356
vt 0.723465 0.190391
vt 0.746512 0.175768
vt 0.773608 0.158790
vt 0.805656 0.138731
vt 0.643462 0.249352
vt 0.657594 0.237742
vt 0.672463 0.226092
vt 0.687295 0.215061
vt 0.763902 0.144575
vt 0.794048 0.122020
vt 0.642603 0.248210
vt 0.655313 0.235066
vt 0.668789 0.221761
vt 0.682450 0.209071
vt 0.698063 0.195584
vt 0.716429 0.180632
vt 0.738270 0.163867
vt 0.708425 0.171434
vt 0.728962 0.152636
vt 0.753038 0.131197
vt 0.781218 0.106400
vt 0.641636 0.247217
vt 0.652733 0.232672
vt 0.664614 0.217832
vt 0.676929 0.203549
vt 0.691311 0.188349
vt 0.640593 0.246386
vt 0.649883 0.230601
vt 0.659942 0.214381
vt 0.670779 0.198556
vt 0.683777 0.181639
vt 0.699509 0.162890
vt 0.718651 0.142122
vt 0.741119 0.118690
vt 0.767309 0.091898
vt 0.675438 0.175566
vt 0.689699 0.155015
vt 0.707388 0.132345
vt 0.728242 0.107060
vt 0.752469 0.078514
vt 0.639491 0.245736
vt 0.646794 0.228892
vt 0.654827 0.211453
vt 0.663986 0.194163
vt 0.649297 0.209113
vt 0.656574 0.190447
vt 0.666297 0.170185
vt 0.679010 0.147842
vt 0.695215 0.123313
vt 0.714493 0.096291
vt 0.736844 0.066219
vt 0.638366 0.245276
vt 0.643501 0.227582
vt 0.682157 0.115011
vt 0.699948 0.086336
vt 0.720574 0.054949
vt 0.637262 0.245015
vt 0.640048 0.226710
vt 0.643386 0.207433
vt 0.648518 0.187451
vt 0.656440 0.165574
vt 0.667450 0.141406
vt 0.639908 0.185333
vt 0.645687 0.161775
vt 0.654985 0.135725
vt 0.668210 0.107408
vt 0.684665 0.077119
vt 0.703795 0.044603
vt 0.636226 0.244949
vt 0.636485 0.226315
vt 0.637134 0.206498
vt 0.653337 0.100447
vt 0.668686 0.068528
vt 0.686632 0.035042
vt 0.635294 0.245056
vt 0.632876 0.226434
vt 0.630628 0.206404
vt 0.630633 0.184177
vt 0.634049 0.158871
vt 0.641586 0.130820
vt 0.620889 0.184109
vt 0.621601 0.157039
vt 0.627006 0.126660
vt 0.637439 0.094043
vt 0.652030 0.060402
vt 0.669203 0.026079
vt 0.634559 0.245338
vt 0.629287 0.227106
vt 0.623864 0.207253
vt 0.620375 0.088094
vt 0.634716 0.052542
vt 0.651657 0.017494
vt 0.634014 0.245637
vt 0.625827 0.228354
vt 0.617031 0.209171
vt 0.610475 0.185331
vt 0.607925 0.156272
vt 0.611488 0.123372
vt 0.609074 0.332353
vt 0.621691 0.361000
vt 0.607925 0.362251
vt 0.612269 0.395689
vt 0.628062 0.391861
vt 0.639474 0.424679
vt 0.622455 0.430970
vt 0.637231 0.467580
vt 0.655194 0.459143
vt 0.655807 0.504491
vt 0.674248 0.494963
vt 0.624044 0.286948
vt 0.632235 0.268753
vt 0.627679 0.288179
vt 0.622453 0.309171
vt 0.615287 0.307351
vt 0.620007 0.333243
vt 0.672296 0.450333
vt 0.692332 0.484897
vt 0.632929 0.269171
vt 0.631415 0.288833
vt 0.629506 0.309888
vt 0.630086 0.332846
vt 0.634332 0.358704
vt 0.642814 0.387213
vt 0.655502 0.417805
vt 0.646075 0.355427
vt 0.656436 0.381794
vt 0.670530 0.410310
vt 0.688563 0.440964
vt 0.709909 0.474109
vt 0.633854 0.269489
vt 0.635163 0.288942
vt 0.636254 0.309637
vt 0.639609 0.331388
vt 0.703978 0.430926
vt 0.726837 0.462478
vt 0.634917 0.269640
vt 0.638854 0.288538
vt 0.642712 0.308545
vt 0.648384 0.328975
vt 0.656941 0.351266
vt 0.669036 0.375620
vt 0.684587 0.402146
vt 0.666972 0.346300
vt 0.680670 0.368710
vt 0.697687 0.393288
vt 0.718500 0.420151
vt 0.742981 0.449931
vt 0.636098 0.269623
vt 0.642424 0.287660
vt 0.648766 0.306694
vt 0.656586 0.325738
vt 0.654429 0.304188
vt 0.664134 0.321763
vt 0.676177 0.340600
vt 0.691363 0.361091
vt 0.709830 0.383729
vt 0.732080 0.408607
vt 0.758209 0.436441
vt 0.636745 0.269438
vt 0.645808 0.286236
vt 0.721008 0.373482
vt 0.744661 0.396281
vt 0.772401 0.422029
vt 0.638527 0.268781
vt 0.649015 0.284519
vt 0.659629 0.301082
vt 0.671019 0.317133
vt 0.684560 0.334232
vt 0.701114 0.352795
vt 0.639127 0.268410
vt 0.300923 0.707120
vt 0.290739 0.664836
vt 0.298627 0.659804
vt 0.283278 0.651826
vt 0.328043 0.603064
vt 0.298650 0.659792
vt 0.283281 0.651855
vt 0.273827 0.708750
vt 0.282786 0.662117
vt 0.229233 0.752206
vt 0.245413 0.761004
vt 0.230211 0.788962
vt 0.242895 0.677859
vt 0.176825 0.848587
vt 0.211021 0.824253
vt 0.193005 0.857386
vt 0.214030 0.780164
vt 0.194841 0.815454
vt 0.563109 0.784160
vt 0.552925 0.741877
vt 0.560813 0.736844
vt 0.545464 0.728867
vt 0.590229 0.680105
vt 0.560836 0.736832
vt 0.545468 0.728895
vt 0.536013 0.785791
vt 0.544973 0.739158
vt 0.491419 0.829247
vt 0.507599 0.838045
vt 0.492397 0.866003
vt 0.505081 0.754900
vt 0.439010 0.925628
vt 0.473207 0.901293
vt 0.455191 0.934426
vt 0.476216 0.857205
vt 0.457027 0.892495
vt 0.751891 0.627959
vt 0.740624 0.586405
vt 0.748325 0.579677
vt 0.732373 0.572641
vt 0.774262 0.520713
vt 0.748348 0.579664
vt 0.733216 0.582084
vt 0.732378 0.572669
vt 0.724771 0.629649
vt 0.696476 0.682191
vt 0.708501 0.620887
vt 0.681336 0.710303
vt 0.680206 0.673429
vt 0.693728 0.599053
vt 0.628015 0.770341
vt 0.662227 0.745787
vt 0.644285 0.779103
vt 0.665067 0.701541
vt 0.645957 0.737025
vt 0.851389 0.769249
vt 0.841206 0.726966
vt 0.849094 0.721933
vt 0.833744 0.713956
vt 0.878510 0.665194
vt 0.849116 0.721921
vt 0.833748 0.713984
vt 0.824293 0.770880
vt 0.833253 0.724247
vt 0.779699 0.814336
vt 0.795880 0.823134
vt 0.780677 0.851092
vt 0.793362 0.739989
vt 0.727291 0.910717
vt 0.761488 0.886382
vt 0.743471 0.919515
vt 0.764497 0.842294
vt 0.745307 0.877584
vt 0.034792 0.279835
vt 0.017560 0.288280
vt 0.017560 0.279835
vt 0.034792 0.018026
vt 0.017560 0.026471
vt 0.017560 0.018026
vt 0.034792 0.026471
vt 0.017560 0.034917
vt 0.034792 0.034917
vt 0.017560 0.043362
vt 0.034792 0.043362
vt 0.017560 0.051808
vt 0.034792 0.060253
vt 0.017560 0.060253
vt 0.017560 0.068699
vt 0.034792 0.068699
vt 0.017560 0.077144
vt 0.034792 0.077144
vt 0.017560 0.085589
vt 0.034792 0.085589
vt 0.017560 0.094035
vt 0.034792 0.094035
vt 0.017560 0.102480
vt 0.034792 0.102480
vt 0.017560 0.110926
vt 0.034792 0.110926
vt 0.017560 0.119371
vt 0.034792 0.119371
vt 0.017560 0.127817
vt 0.034792 0.127817
vt 0.017560 0.136262
vt 0.034792 0.136262
vt 0.017560 0.144708
vt 0.034792 0.144708
vt 0.017560 0.153153
vt 0.034792 0.153153
vt 0.017560 0.161599
vt 0.034792 0.161599
vt 0.017560 0.170044
vt 0.034792 0.170044
vt 0.017560 0.178489
vt 0.034792 0.178489
vt 0.017560 0.186935
vt 0.034792 0.186935
vt 0.017560 0.195381
vt 0.034792 0.195381
vt 0.017560 0.203826
vt 0.034792 0.203826
vt 0.017560 0.212271
vt 0.034792 0.212271
vt 0.017560 0.220717
vt 0.034792 0.220717
vt 0.017560 0.229162
vt 0.034792 0.229162
vt 0.017560 0.237608
vt 0.034792 0.237608
vt 0.017560 0.246053
vt 0.034792 0.246053
vt 0.017560 0.254499
vt 0.034792 0.254499
vt 0.017560 0.262944
vt 0.066253 0.356077
vt 0.073180 0.346949
vt 0.074498 0.353575
vt 0.148706 0.331065
vt 0.141778 0.340193
vt 0.140460 0.333566
vt 0.034792 0.262944
vt 0.017560 0.271390
vt 0.034792 0.271390
vt 0.496415 0.026958
vt 0.527969 0.017386
vt 0.513741 0.027279
vt 0.551077 0.093563
vt 0.519523 0.103135
vt 0.533751 0.093242
vt 0.100650 0.226850
vt 0.083417 0.233607
vt 0.083417 0.226850
vt 0.100650 0.017403
vt 0.083417 0.024159
vt 0.083417 0.017403
vt 0.100650 0.024159
vt 0.083417 0.030916
vt 0.100650 0.030916
vt 0.083417 0.037672
vt 0.083417 0.044428
vt 0.100650 0.037672
vt 0.100650 0.044428
vt 0.100650 0.051185
vt 0.083417 0.051185
vt 0.100650 0.057941
vt 0.083417 0.057941
vt 0.100650 0.064698
vt 0.083417 0.064698
vt 0.100650 0.071454
vt 0.083417 0.071454
vt 0.100650 0.078210
vt 0.083417 0.078210
vt 0.100650 0.084967
vt 0.083417 0.084967
vt 0.100650 0.091723
vt 0.083417 0.091723
vt 0.100650 0.098479
vt 0.083417 0.098479
vt 0.100650 0.105236
vt 0.083417 0.105236
vt 0.100650 0.111992
vt 0.083417 0.111992
vt 0.100650 0.118749
vt 0.083417 0.118749
vt 0.100650 0.125505
vt 0.083417 0.125505
vt 0.100650 0.132261
vt 0.083417 0.132261
vt 0.100650 0.139018
vt 0.083417 0.139018
vt 0.100650 0.145774
vt 0.083417 0.152530
vt 0.100650 0.152530
vt 0.083417 0.159287
vt 0.100650 0.159287
vt 0.083417 0.166043
vt 0.083417 0.172799
vt 0.100650 0.166043
vt 0.100650 0.172799
vt 0.083417 0.179556
vt 0.100650 0.179556
vt 0.083417 0.186312
vt 0.100650 0.186312
vt 0.083417 0.193068
vt 0.100650 0.199825
vt 0.083417 0.199825
vt 0.083417 0.206581
vt 0.100650 0.206581
vt 0.083417 0.213338
vt 0.100650 0.213338
vt 0.083417 0.220094
vt 0.100650 0.220094
vt 0.333446 0.853432
vt 0.343751 0.849732
vt 0.341624 0.856145
vt 0.337700 0.840607
vt 0.345878 0.843319
vt 0.339828 0.834194
vt 0.348006 0.836907
vt 0.350133 0.830494
vt 0.341955 0.827781
vt 0.352260 0.824081
vt 0.344082 0.821368
vt 0.354387 0.817668
vt 0.346209 0.814956
vt 0.356515 0.811256
vt 0.348336 0.808543
vt 0.358642 0.804843
vt 0.350464 0.802130
vt 0.360769 0.798430
vt 0.352591 0.795717
vt 0.362896 0.792017
vt 0.354718 0.789304
vt 0.365024 0.785605
vt 0.356846 0.782892
vt 0.367151 0.779192
vt 0.358973 0.776479
vt 0.369278 0.772779
vt 0.361100 0.770066
vt 0.371405 0.766366
vt 0.363227 0.763654
vt 0.373533 0.759954
vt 0.365355 0.757241
vt 0.375660 0.753541
vt 0.367482 0.750828
vt 0.377787 0.747128
vt 0.369609 0.744415
vt 0.379914 0.740716
vt 0.371736 0.738003
vt 0.382042 0.734303
vt 0.373864 0.731590
vt 0.384169 0.727890
vt 0.375991 0.725177
vt 0.386296 0.721477
vt 0.378118 0.718765
vt 0.388423 0.715065
vt 0.380245 0.712352
vt 0.390551 0.708652
vt 0.382373 0.705939
vt 0.392678 0.702239
vt 0.384500 0.699526
vt 0.394805 0.695826
vt 0.386627 0.693114
vt 0.396933 0.689414
vt 0.388754 0.686701
vt 0.399060 0.683001
vt 0.390882 0.680288
vt 0.401187 0.676588
vt 0.393009 0.673875
vt 0.403314 0.670175
vt 0.395136 0.667463
vt 0.405442 0.663763
vt 0.265862 0.851689
vt 0.293977 0.811874
vt 0.333792 0.839989
vt 0.397263 0.661050
vt 0.407569 0.657350
vt 0.331318 0.859845
vt 0.339496 0.862558
vt 0.406733 0.877743
vt 0.365522 0.903769
vt 0.447025 0.373058
vt 0.621294 0.557636
vt 0.618165 0.574293
vt 0.611847 0.590020
vt 0.602582 0.604211
vt 0.590727 0.616322
vt 0.576736 0.625888
vt 0.561148 0.632540
vt 0.544562 0.636024
vt 0.527615 0.636205
vt 0.510958 0.633076
vt 0.495232 0.626758
vt 0.481041 0.617493
vt 0.468929 0.605638
vt 0.459364 0.591647
vt 0.452711 0.576059
vt 0.452175 0.525870
vt 0.458494 0.510143
vt 0.467758 0.495952
vt 0.479614 0.483840
vt 0.493604 0.474275
vt 0.509192 0.467622
vt 0.542725 0.463958
vt 0.559382 0.467086
vt 0.575108 0.473405
vt 0.589300 0.482670
vt 0.601411 0.494525
vt 0.610977 0.508515
vt 0.617629 0.524103
vt 0.020805 0.571172
vt 0.018264 0.554474
vt 0.019029 0.537600
vt 0.023072 0.521200
vt 0.030236 0.505904
vt 0.040247 0.492299
vt 0.052719 0.480909
vt 0.067174 0.472171
vt 0.083056 0.466421
vt 0.099755 0.463879
vt 0.116628 0.464645
vt 0.133028 0.468687
vt 0.148325 0.475851
vt 0.161930 0.485862
vt 0.173320 0.498334
vt 0.187808 0.528672
vt 0.185799 0.578694
vt 0.178605 0.594039
vt 0.168559 0.607689
vt 0.156044 0.619117
vt 0.125605 0.633655
vt 0.108850 0.636205
vt 0.091919 0.635439
vt 0.075462 0.631388
vt 0.060103 0.624222
vt 0.046684 0.613982
vt 0.035294 0.601510
vt 0.549972 0.355020
vt 0.689141 0.784956
vt 0.890441 0.194726
vt 0.927718 0.157809
vt 0.455535 0.648271
vt 0.119046 0.857386
vt 0.071828 0.807682
vt 0.022124 0.824718
vt 0.030570 0.650756
vt 0.084001 0.854541
vt 0.085244 0.670638
vt 0.921758 0.331771
vt 0.486852 0.316860
vt 0.678211 0.922000
vt 0.235597 0.884363
vt 0.870559 0.018279
vt 0.819866 0.922000
vt 0.138675 0.720341
vt 0.875530 0.157809
vt 0.914302 0.018279
vt 0.636953 0.882237
vt 0.525372 0.936911
vt 0.907837 0.864481
vt 0.536556 0.268039
vt 0.128987 0.944367
vt 0.022124 0.394783
vt 0.030570 0.787801
vt 0.899391 0.759221
vt 0.818370 0.018279
vt 0.497783 0.356263
vt 0.553562 0.221550
vt 0.546540 0.226242
vt 0.538737 0.229474
vt 0.530454 0.231121
vt 0.522009 0.231121
vt 0.513726 0.229474
vt 0.505923 0.226242
vt 0.498901 0.221550
vt 0.492929 0.215578
vt 0.488237 0.208556
vt 0.485005 0.200753
vt 0.483357 0.192470
vt 0.483357 0.184025
vt 0.485005 0.175741
vt 0.488237 0.167939
vt 0.498901 0.154945
vt 0.505923 0.150253
vt 0.513725 0.147021
vt 0.522008 0.145373
vt 0.530454 0.145373
vt 0.538737 0.147021
vt 0.546540 0.150253
vt 0.559534 0.160917
vt 0.564226 0.167939
vt 0.567458 0.175741
vt 0.569105 0.184025
vt 0.569105 0.192470
vt 0.567458 0.200753
vt 0.564226 0.208556
vt 0.576318 0.944367
vt 0.872054 0.337624
vt 0.811391 0.524110
vt 0.811391 0.507219
vt 0.814686 0.490653
vt 0.821150 0.475047
vt 0.830534 0.461003
vt 0.842478 0.449060
vt 0.856522 0.439675
vt 0.872127 0.433212
vt 0.888693 0.429916
vt 0.905584 0.429916
vt 0.922151 0.433212
vt 0.937756 0.439675
vt 0.951800 0.449060
vt 0.963744 0.461003
vt 0.973128 0.475047
vt 0.982887 0.507219
vt 0.982887 0.524110
vt 0.979592 0.540676
vt 0.973128 0.556281
vt 0.963744 0.570326
vt 0.951800 0.582269
vt 0.937756 0.591653
vt 0.905584 0.601413
vt 0.888693 0.601413
vt 0.872127 0.598117
vt 0.856522 0.591653
vt 0.842478 0.582269
vt 0.830534 0.570326
vt 0.821150 0.556281
vt 0.328043 0.737019
vt 0.318493 0.778941
vt 0.285281 0.771375
vt 0.312671 0.595099
vt 0.257646 0.699952
vt 0.202039 0.728053
vt 0.176500 0.706629
vt 0.203542 0.674392
vt 0.590229 0.814060
vt 0.580679 0.855982
vt 0.547467 0.848416
vt 0.574858 0.672140
vt 0.519833 0.776992
vt 0.464225 0.805093
vt 0.438686 0.783670
vt 0.465728 0.751432
vt 0.779103 0.657831
vt 0.769632 0.699815
vt 0.736371 0.692313
vt 0.758288 0.513691
vt 0.653491 0.649113
vt 0.628015 0.628009
vt 0.654654 0.595853
vt 0.878510 0.799149
vt 0.868959 0.841071
vt 0.835748 0.833505
vt 0.863138 0.657229
vt 0.808113 0.762082
vt 0.752505 0.790182
vt 0.726966 0.768759
vt 0.754009 0.736521
vt 0.034792 0.288280
vt 0.034792 0.051808
vt 0.110857 0.377870
vt 0.117484 0.376552
vt 0.119985 0.384797
vt 0.111702 0.386445
vt 0.103257 0.386445
vt 0.094973 0.384797
vt 0.087171 0.381565
vt 0.080149 0.376873
vt 0.074177 0.370901
vt 0.069485 0.363879
vt 0.064605 0.347793
vt 0.064605 0.339348
vt 0.066253 0.331065
vt 0.069485 0.323262
vt 0.074177 0.316240
vt 0.080149 0.310268
vt 0.087171 0.305576
vt 0.094973 0.302344
vt 0.097474 0.310590
vt 0.091232 0.313175
vt 0.085615 0.316929
vt 0.104101 0.377870
vt 0.097474 0.376552
vt 0.080837 0.321706
vt 0.091232 0.373966
vt 0.077084 0.327324
vt 0.074498 0.333566
vt 0.085615 0.370213
vt 0.080837 0.365435
vt 0.073180 0.340193
vt 0.077084 0.359818
vt 0.104101 0.309272
vt 0.103257 0.300697
vt 0.111702 0.300697
vt 0.119985 0.302344
vt 0.127788 0.305576
vt 0.134810 0.310268
vt 0.140782 0.316240
vt 0.145474 0.323262
vt 0.150353 0.339348
vt 0.150353 0.347793
vt 0.148706 0.356077
vt 0.145473 0.363879
vt 0.140782 0.370901
vt 0.134810 0.376873
vt 0.127788 0.381565
vt 0.123726 0.373966
vt 0.129344 0.370213
vt 0.110857 0.309272
vt 0.117484 0.310590
vt 0.134121 0.365435
vt 0.123726 0.313175
vt 0.137875 0.359818
vt 0.140460 0.353575
vt 0.129344 0.316929
vt 0.134121 0.321706
vt 0.141778 0.346949
vt 0.137875 0.327324
vt 0.507499 0.029865
vt 0.501882 0.033619
vt 0.503438 0.022266
vt 0.511240 0.019034
vt 0.519523 0.017386
vt 0.527124 0.025961
vt 0.520368 0.025961
vt 0.533751 0.027279
vt 0.536252 0.019034
vt 0.544055 0.022266
vt 0.551077 0.026958
vt 0.557048 0.032930
vt 0.561741 0.039952
vt 0.564973 0.047755
vt 0.566620 0.056038
vt 0.566620 0.064483
vt 0.564973 0.072766
vt 0.561741 0.080569
vt 0.557048 0.087591
vt 0.544055 0.098255
vt 0.536252 0.101487
vt 0.527969 0.103135
vt 0.511240 0.101487
vt 0.503438 0.098255
vt 0.496415 0.093563
vt 0.490444 0.087591
vt 0.485752 0.080569
vt 0.482520 0.072766
vt 0.480872 0.064483
vt 0.480872 0.056038
vt 0.482520 0.047755
vt 0.485752 0.039952
vt 0.490444 0.032930
vt 0.497104 0.038396
vt 0.493350 0.044014
vt 0.539993 0.029865
vt 0.545611 0.033619
vt 0.490765 0.050256
vt 0.550388 0.038396
vt 0.489447 0.056882
vt 0.489447 0.063639
vt 0.554142 0.044014
vt 0.556727 0.050256
vt 0.490765 0.070265
vt 0.558045 0.056882
vt 0.493350 0.076507
vt 0.497104 0.082125
vt 0.558045 0.063639
vt 0.556727 0.070265
vt 0.501882 0.086902
vt 0.507499 0.090656
vt 0.554142 0.076507
vt 0.513741 0.093242
vt 0.550388 0.082125
vt 0.545611 0.086902
vt 0.520368 0.094560
vt 0.527124 0.094560
vt 0.539993 0.090656
vt 0.100650 0.233607
vt 0.083417 0.145774
vt 0.100650 0.193068
vt 0.335573 0.847019
vt 0.334281 0.846727
vt 0.327981 0.865719
vt 0.323562 0.870830
vt 0.318230 0.874980
vt 0.312192 0.878010
vt 0.305678 0.879804
vt 0.298939 0.880293
vt 0.292234 0.879457
vt 0.285822 0.877330
vt 0.279947 0.873993
vt 0.274837 0.869573
vt 0.270687 0.864242
vt 0.267656 0.858203
vt 0.265373 0.844951
vt 0.266209 0.838246
vt 0.268336 0.831833
vt 0.271674 0.825959
vt 0.276093 0.820848
vt 0.281424 0.816698
vt 0.287463 0.813668
vt 0.300715 0.811385
vt 0.307420 0.812221
vt 0.313833 0.814348
vt 0.319707 0.817685
vt 0.324818 0.822105
vt 0.328968 0.827436
vt 0.331998 0.833475
vt 0.399391 0.654637
vt 0.344961 0.850270
vt 0.349381 0.845160
vt 0.354712 0.841010
vt 0.360751 0.837979
vt 0.367265 0.836185
vt 0.374003 0.835697
vt 0.380708 0.836532
vt 0.387121 0.838659
vt 0.392995 0.841997
vt 0.398106 0.846416
vt 0.402256 0.851748
vt 0.405286 0.857786
vt 0.407080 0.864300
vt 0.407569 0.871039
vt 0.404606 0.884156
vt 0.401269 0.890030
vt 0.396849 0.895141
vt 0.391518 0.899291
vt 0.385479 0.902321
vt 0.378965 0.904115
vt 0.372227 0.904604
vt 0.359109 0.901641
vt 0.353235 0.898304
vt 0.348124 0.893885
vt 0.343974 0.888553
vt 0.340944 0.882514
vt 0.339150 0.876001
vt 0.338661 0.869262
s 0
usemtl マテリアル
f 2/1/1 3/2/1 1/3/1
f 4/4/2 5/5/2 3/2/2
f 6/6/3 7/7/3 5/5/3
f 8/8/4 9/9/4 7/7/4
f 10/10/5 11/11/5 9/9/5
f 12/12/6 13/13/6 11/11/6
f 14/14/7 15/15/7 13/13/7
f 15/15/8 18/16/8 17/17/8
f 17/17/9 20/18/9 19/19/9
f 19/19/10 22/20/10 21/21/10
f 21/21/11 24/22/11 23/23/11
f 23/23/12 26/24/12 25/25/12
f 25/25/13 28/26/13 27/27/13
f 27/27/14 30/28/14 29/29/14
f 29/29/15 32/30/15 31/31/15
f 31/31/16 34/32/16 33/33/16
f 33/33/17 36/34/17 35/35/17
f 35/35/18 38/36/18 37/37/18
f 38/38/19 39/39/19 37/40/19
f 40/41/20 41/42/20 39/39/20
f 42/43/21 43/44/21 41/42/21
f 44/45/22 45/46/22 43/44/22
f 46/47/23 47/48/23 45/46/23
f 48/49/24 49/50/24 47/48/24
f 50/51/25 51/52/25 49/50/25
f 52/53/26 53/54/26 51/52/26
f 54/55/27 55/56/27 53/54/27
f 56/57/28 57/58/28 55/56/28
f 58/59/29 59/60/29 57/58/29
f 60/61/30 61/62/30 59/60/30
f 38/36/31 22/63/31 6/64/31
f 62/65/32 63/66/32 61/62/32
f 64/67/33 1/3/33 63/66/33
f 31/68/34 47/69/34 63/70/34
f 66/71/35 67/72/35 65/73/35
f 68/74/36 69/75/36 67/76/36
f 70/77/37 71/78/37 69/79/37
f 71/80/38 74/81/38 73/82/38
f 74/83/39 75/84/39 73/85/39
f 76/86/40 77/87/40 75/88/40
f 78/89/41 79/90/41 77/91/41
f 79/92/42 82/93/42 81/94/42
f 82/95/43 83/96/43 81/97/43
f 84/98/44 85/99/44 83/100/44
f 86/101/45 87/102/45 85/103/45
f 88/104/46 89/105/46 87/106/46
f 90/107/47 91/108/47 89/109/47
f 92/110/48 93/111/48 91/112/48
f 94/113/49 95/114/49 93/115/49
f 96/116/50 97/117/50 95/118/50
f 98/119/51 99/120/51 97/121/51
f 100/122/52 101/123/52 99/124/52
f 101/125/53 104/126/53 103/127/53
f 103/128/54 106/129/54 105/130/54
f 105/131/55 108/132/55 107/133/55
f 108/134/56 109/135/56 107/136/56
f 110/137/57 111/138/57 109/139/57
f 111/140/58 114/141/58 113/142/58
f 114/143/59 115/144/59 113/145/59
f 115/146/60 118/147/60 117/148/60
f 117/149/61 120/150/61 119/151/61
f 120/152/62 121/153/62 119/154/62
f 122/155/63 123/156/63 121/157/63
f 124/158/64 125/159/64 123/160/64
f 102/161/31 86/162/31 70/163/31
f 126/164/65 127/165/65 125/166/65
f 127/167/66 66/168/66 65/169/66
f 95/170/67 111/171/67 127/172/67
f 383/173/68 133/174/68 134/175/68
f 129/176/69 134/175/69 135/177/69
f 384/178/70 135/177/70 136/179/70
f 384/178/71 137/180/71 130/181/71
f 385/182/72 137/180/72 138/183/72
f 385/182/73 139/184/73 131/185/73
f 131/185/74 140/186/74 132/187/74
f 382/188/75 173/189/75 133/174/75
f 139/184/76 148/190/76 140/186/76
f 133/174/77 173/191/77 141/192/77
f 133/174/78 142/193/78 134/175/78
f 134/175/79 143/194/79 135/177/79
f 136/179/80 143/194/80 144/195/80
f 136/179/81 145/196/81 137/180/81
f 137/180/82 146/197/82 138/183/82
f 138/183/83 147/198/83 139/184/83
f 144/195/84 153/199/84 145/196/84
f 145/196/85 154/200/85 146/197/85
f 146/197/86 155/201/86 147/198/86
f 147/198/87 156/202/87 148/190/87
f 141/192/88 173/203/88 149/204/88
f 141/192/89 150/205/89 142/193/89
f 142/193/90 151/206/90 143/194/90
f 144/195/91 151/206/91 152/207/91
f 149/204/92 173/208/92 157/209/92
f 149/204/93 158/210/93 150/205/93
f 150/205/94 159/211/94 151/206/94
f 151/206/95 160/212/95 152/207/95
f 153/199/96 160/212/96 161/213/96
f 153/199/97 162/214/97 154/200/97
f 154/200/98 163/215/98 155/201/98
f 156/202/99 163/215/99 164/216/99
f 161/213/100 168/217/100 169/218/100
f 161/213/101 170/219/101 162/214/101
f 162/214/102 171/220/102 163/215/102
f 163/215/103 172/221/103 164/216/103
f 157/209/104 173/222/104 165/223/104
f 157/209/105 166/224/105 158/210/105
f 158/210/106 167/225/106 159/211/106
f 159/211/107 168/217/107 160/212/107
f 165/223/108 175/226/108 166/224/108
f 166/224/109 176/227/109 167/225/109
f 167/225/110 177/228/110 168/217/110
f 168/217/111 178/229/111 169/218/111
f 169/218/112 179/230/112 170/219/112
f 171/220/113 179/230/113 180/231/113
f 171/220/114 181/232/114 172/221/114
f 165/223/115 173/233/115 174/234/115
f 178/229/116 187/235/116 179/230/116
f 179/230/117 188/236/117 180/231/117
f 180/231/118 189/237/118 181/232/118
f 174/234/119 173/238/119 182/239/119
f 174/234/120 183/240/120 175/226/120
f 176/227/121 183/240/121 184/241/121
f 176/227/122 185/242/122 177/228/122
f 178/229/123 185/242/123 186/243/123
f 182/239/124 191/244/124 183/240/124
f 183/240/125 192/245/125 184/241/125
f 184/241/126 193/246/126 185/242/126
f 186/243/127 193/246/127 194/247/127
f 186/243/128 195/248/128 187/235/128
f 188/236/129 195/248/129 196/249/129
f 188/236/130 197/250/130 189/237/130
f 182/239/131 173/251/131 190/252/131
f 194/247/132 203/253/132 195/248/132
f 196/249/133 203/253/133 204/254/133
f 196/249/134 205/255/134 197/250/134
f 190/252/135 173/256/135 198/257/135
f 190/252/136 199/258/136 191/244/136
f 191/244/137 200/259/137 192/245/137
f 192/245/138 201/260/138 193/246/138
f 193/246/139 202/261/139 194/247/139
f 199/258/140 208/262/140 200/259/140
f 200/259/141 209/263/141 201/260/141
f 202/261/142 209/263/142 210/264/142
f 202/261/143 211/265/143 203/253/143
f 204/254/144 211/265/144 212/266/144
f 204/254/145 213/267/145 205/255/145
f 198/257/146 173/268/146 206/269/146
f 198/257/147 207/270/147 199/258/147
f 212/266/148 219/271/148 220/272/148
f 212/266/149 221/273/149 213/267/149
f 206/269/150 173/274/150 214/275/150
f 206/269/151 215/276/151 207/270/151
f 207/270/152 216/277/152 208/262/152
f 208/262/153 217/278/153 209/263/153
f 210/264/154 217/278/154 218/279/154
f 210/264/155 219/271/155 211/265/155
f 216/277/156 225/280/156 217/278/156
f 218/279/157 225/280/157 226/281/157
f 218/279/158 227/282/158 219/271/158
f 219/271/159 228/283/159 220/272/159
f 221/273/160 228/283/160 229/284/160
f 214/275/161 173/285/161 222/286/161
f 214/275/162 223/287/162 215/276/162
f 215/276/163 224/288/163 216/277/163
f 229/284/164 236/289/164 237/290/164
f 222/286/165 173/291/165 230/292/165
f 223/287/166 230/292/166 231/293/166
f 223/287/167 232/294/167 224/288/167
f 225/280/168 232/294/168 233/295/168
f 226/281/169 233/295/169 234/296/169
f 226/281/170 235/297/170 227/282/170
f 227/282/171 236/289/171 228/283/171
f 232/294/172 241/298/172 233/295/172
f 234/296/173 241/298/173 242/299/173
f 234/296/174 243/300/174 235/297/174
f 236/289/175 243/300/175 244/301/175
f 237/290/176 244/301/176 245/302/176
f 230/292/177 173/303/177 238/304/177
f 231/293/178 238/304/178 239/305/178
f 231/293/179 240/306/179 232/294/179
f 245/302/180 252/307/180 253/308/180
f 238/304/181 173/309/181 246/310/181
f 238/304/182 247/311/182 239/305/182
f 239/305/183 248/312/183 240/306/183
f 240/306/184 249/313/184 241/298/184
f 241/298/185 250/314/185 242/299/185
f 242/299/186 251/315/186 243/300/186
f 243/300/187 252/307/187 244/301/187
f 249/313/188 258/316/188 250/314/188
f 250/314/189 259/317/189 251/315/189
f 252/307/190 259/317/190 260/318/190
f 253/308/191 260/318/191 261/319/191
f 246/310/192 173/320/192 254/321/192
f 246/310/193 255/322/193 247/311/193
f 247/311/194 256/323/194 248/312/194
f 248/312/195 257/324/195 249/313/195
f 254/321/196 173/325/196 262/326/196
f 255/322/197 262/326/197 263/327/197
f 256/323/198 263/327/198 264/328/198
f 256/323/199 265/329/199 257/324/199
f 258/316/200 265/329/200 266/330/200
f 258/316/201 267/331/201 259/317/201
f 260/318/202 267/331/202 268/332/202
f 261/319/203 268/332/203 269/333/203
f 266/330/204 273/334/204 274/335/204
f 266/330/205 275/336/205 267/331/205
f 267/331/206 276/337/206 268/332/206
f 269/333/207 276/337/207 277/338/207
f 262/326/208 173/339/208 270/340/208
f 262/326/209 271/341/209 263/327/209
f 263/327/210 272/342/210 264/328/210
f 264/328/211 273/334/211 265/329/211
f 270/340/212 279/343/212 271/341/212
f 271/341/213 280/344/213 272/342/213
f 272/342/214 281/345/214 273/334/214
f 274/335/215 281/345/215 282/346/215
f 274/335/216 283/347/216 275/336/216
f 275/336/217 284/348/217 276/337/217
f 277/338/218 284/348/218 285/349/218
f 270/340/219 173/350/219 278/351/219
f 282/346/220 291/352/220 283/347/220
f 283/347/221 292/353/221 284/348/221
f 285/349/222 292/353/222 293/354/222
f 278/351/223 173/355/223 286/356/223
f 278/351/224 287/357/224 279/343/224
f 279/343/225 288/358/225 280/344/225
f 280/344/226 289/359/226 281/345/226
f 281/345/227 290/360/227 282/346/227
f 287/357/228 296/361/228 288/358/228
f 288/358/229 297/362/229 289/359/229
f 290/360/230 297/362/230 298/363/230
f 290/360/231 299/364/231 291/352/231
f 292/353/232 299/364/232 300/365/232
f 293/354/233 300/365/233 301/366/233
f 286/356/234 173/367/234 294/368/234
f 286/356/235 295/369/235 287/357/235
f 300/365/236 307/370/236 308/371/236
f 301/366/237 308/371/237 309/372/237
f 294/368/238 173/373/238 302/374/238
f 294/368/239 303/375/239 295/369/239
f 295/369/240 304/376/240 296/361/240
f 296/361/241 305/377/241 297/362/241
f 298/363/242 305/377/242 306/378/242
f 298/363/243 307/370/243 299/364/243
f 303/375/244 312/379/244 304/376/244
f 304/376/245 313/380/245 305/377/245
f 306/378/246 313/380/246 314/381/246
f 306/378/247 315/382/247 307/370/247
f 308/371/248 315/382/248 316/383/248
f 309/372/249 316/383/249 317/384/249
f 302/374/250 173/385/250 310/386/250
f 302/374/251 311/387/251 303/375/251
f 316/383/252 323/388/252 324/389/252
f 317/384/253 324/389/253 325/390/253
f 310/386/254 173/391/254 318/392/254
f 310/386/255 319/393/255 311/387/255
f 311/387/256 320/394/256 312/379/256
f 312/379/257 321/395/257 313/380/257
f 314/381/258 321/395/258 322/396/258
f 314/381/259 323/388/259 315/382/259
f 320/397/260 329/398/260 321/399/260
f 322/400/261 329/398/261 330/401/261
f 322/400/262 331/402/262 323/403/262
f 324/404/263 331/402/263 332/405/263
f 325/406/264 332/405/264 333/407/264
f 318/408/265 173/409/265 326/410/265
f 318/408/266 327/411/266 319/412/266
f 320/397/267 327/411/267 328/413/267
f 333/407/268 340/414/268 341/415/268
f 326/410/269 173/416/269 334/417/269
f 326/410/270 335/418/270 327/411/270
f 327/411/271 336/419/271 328/413/271
f 328/413/272 337/420/272 329/398/272
f 330/401/273 337/420/273 338/421/273
f 330/401/274 339/422/274 331/402/274
f 332/405/275 339/422/275 340/414/275
f 336/419/276 345/423/276 337/420/276
f 338/421/277 345/423/277 346/424/277
f 338/421/278 347/425/278 339/422/278
f 340/414/279 347/425/279 348/426/279
f 341/415/280 348/426/280 349/427/280
f 334/417/281 173/428/281 342/429/281
f 334/417/282 343/430/282 335/418/282
f 335/418/283 344/431/283 336/419/283
f 349/427/284 356/432/284 357/433/284
f 342/429/285 173/434/285 350/435/285
f 342/429/286 351/436/286 343/430/286
f 344/431/287 351/436/287 352/437/287
f 344/431/288 353/438/288 345/423/288
f 346/424/289 353/438/289 354/439/289
f 346/424/290 355/440/290 347/425/290
f 348/426/291 355/440/291 356/432/291
f 354/439/292 361/441/292 362/442/292
f 354/439/293 363/443/293 355/440/293
f 356/432/294 363/443/294 364/444/294
f 357/433/295 364/444/295 365/445/295
f 350/435/296 173/446/296 358/447/296
f 350/435/297 359/448/297 351/436/297
f 352/437/298 359/448/298 360/449/298
f 352/437/299 361/441/299 353/438/299
f 358/447/300 367/450/300 359/448/300
f 360/449/301 367/450/301 368/451/301
f 360/449/302 369/452/302 361/441/302
f 362/442/303 369/452/303 370/453/303
f 362/442/304 371/454/304 363/443/304
f 364/444/305 371/454/305 372/455/305
f 365/445/306 372/455/306 373/456/306
f 358/447/307 173/457/307 366/458/307
f 370/453/308 379/459/308 371/454/308
f 372/455/309 379/459/309 380/460/309
f 373/456/310 380/460/310 381/461/310
f 366/458/311 173/462/311 374/463/311
f 366/458/312 375/464/312 367/450/312
f 367/450/313 376/465/313 368/451/313
f 368/451/314 377/466/314 369/452/314
f 370/453/315 377/466/315 378/467/315
f 375/464/316 382/188/316 383/173/316
f 376/465/317 383/173/317 129/176/317
f 377/466/318 129/176/318 384/178/318
f 378/467/319 384/178/319 130/181/319
f 378/467/320 385/182/320 379/459/320
f 380/460/321 385/182/321 131/185/321
f 381/461/322 131/185/322 132/187/322
f 374/463/323 173/468/323 382/188/323
f 388/469/324 391/470/324 397/471/324
f 399/472/325 388/473/325 400/474/325
f 391/470/67 396/475/67 397/471/67
f 395/476/326 390/477/326 391/470/326
f 393/478/327 395/476/327 394/479/327
f 389/480/31 393/478/31 394/479/31
f 390/477/328 386/481/328 396/475/328
f 386/482/329 401/483/329 388/484/329
f 400/474/31 396/475/31 399/472/31
f 387/485/330 401/483/330 398/486/330
f 404/487/330 407/488/330 413/489/330
f 415/490/331 404/491/331 416/492/331
f 407/488/67 412/493/67 413/489/67
f 411/494/324 406/495/324 407/488/324
f 409/496/332 411/494/332 410/497/332
f 405/498/31 409/496/31 410/497/31
f 406/495/326 402/499/326 412/493/326
f 402/500/333 417/501/333 404/502/333
f 416/492/31 412/493/31 415/490/31
f 403/503/328 417/501/328 414/504/328
f 420/505/328 423/506/328 429/507/328
f 431/508/334 420/509/334 432/510/334
f 429/507/67 422/511/67 428/512/67
f 427/513/330 422/511/330 423/506/330
f 426/514/335 424/515/335 427/513/335
f 421/516/31 425/517/31 426/514/31
f 422/511/324 418/518/324 428/512/324
f 418/519/336 433/520/336 420/521/336
f 432/510/31 428/512/31 431/508/31
f 419/522/326 433/520/326 430/523/326
f 436/524/326 439/525/326 445/526/326
f 447/527/337 436/528/337 448/529/337
f 439/525/67 444/530/67 445/526/67
f 443/531/328 438/532/328 439/525/328
f 441/533/338 443/531/338 442/534/338
f 437/535/31 441/533/31 442/534/31
f 438/532/330 434/536/330 444/530/330
f 434/537/339 449/538/339 436/539/339
f 448/529/31 444/530/31 447/527/31
f 435/540/324 449/538/324 446/541/324
f 452/542/340 454/543/340 450/544/340
f 456/545/341 458/546/341 454/547/341
f 460/548/342 462/549/342 458/546/342
f 464/550/343 466/551/343 462/549/343
f 468/552/344 470/553/344 466/551/344
f 470/553/345 476/554/345 475/555/345
f 476/554/346 479/556/346 475/555/346
f 481/557/347 483/558/347 479/556/347
f 484/559/348 486/560/348 483/558/348
f 488/561/349 490/562/349 486/560/349
f 492/563/350 494/564/350 490/562/350
f 496/565/351 498/566/351 494/564/351
f 500/567/352 502/568/352 498/566/352
f 504/569/353 506/570/353 502/568/353
f 508/571/354 510/572/354 506/570/354
f 512/573/355 514/574/355 510/572/355
f 517/575/356 519/576/356 514/574/356
f 520/577/357 523/578/357 519/576/357
f 524/579/358 527/580/358 523/578/358
f 528/581/359 531/582/359 527/580/359
f 532/583/360 535/584/360 531/582/360
f 536/585/361 539/586/361 535/584/361
f 541/587/362 542/588/362 539/586/362
f 544/589/363 547/590/363 542/588/363
f 548/591/364 551/592/364 547/590/364
f 552/593/365 554/594/365 551/592/365
f 556/595/366 559/596/366 554/594/366
f 560/597/367 562/598/367 559/596/367
f 565/599/368 566/600/368 562/598/368
f 569/601/369 570/602/369 566/600/369
f 552/603/328 549/604/328 553/605/328
f 488/606/328 485/607/328 489/608/328
f 573/609/370 574/610/370 570/602/370
f 577/611/371 450/544/371 574/610/371
f 554/612/324 570/613/324 563/614/324
f 490/615/324 506/616/324 499/617/324
f 451/618/356 457/619/356 453/620/356
f 455/621/357 461/622/357 457/623/357
f 459/624/358 465/625/358 461/622/358
f 463/626/359 469/627/359 465/625/359
f 473/628/360 467/629/360 471/630/360
f 473/628/361 474/631/361 477/632/361
f 478/633/362 477/632/362 474/631/362
f 480/634/363 482/635/363 485/636/363
f 485/636/364 487/637/364 489/638/364
f 489/638/365 491/639/365 493/640/365
f 493/640/366 495/641/366 497/642/366
f 499/643/367 497/642/367 495/641/367
f 501/644/368 503/645/368 505/646/368
f 505/646/369 507/647/369 509/648/369
f 511/649/370 509/648/370 507/647/370
f 513/650/371 515/651/371 516/652/371
f 516/652/340 518/653/340 521/654/340
f 521/654/341 522/655/341 525/656/341
f 525/656/342 526/657/342 529/658/342
f 530/659/343 529/658/343 526/657/343
f 537/660/344 530/659/344 534/661/344
f 534/661/345 540/662/345 537/660/345
f 538/663/346 545/664/346 540/662/346
f 549/665/347 543/666/347 546/667/347
f 546/667/348 553/668/348 549/665/348
f 550/669/349 557/670/349 553/668/349
f 555/671/350 561/672/350 557/670/350
f 561/672/351 563/673/351 564/674/351
f 568/675/352 563/673/352 567/676/352
f 567/676/353 572/677/353 568/675/353
f 571/678/354 576/679/354 572/677/354
f 453/620/355 575/680/355 451/618/355
f 579/681/340 580/682/340 578/683/340
f 580/682/341 583/684/341 582/685/341
f 582/685/342 585/686/342 584/687/342
f 585/686/343 586/688/343 584/687/343
f 587/689/344 588/690/344 586/688/344
f 589/691/345 590/692/345 588/690/345
f 591/693/346 592/694/346 590/692/346
f 593/695/347 594/696/347 592/694/347
f 595/697/348 596/698/348 594/696/348
f 597/699/349 598/700/349 596/698/349
f 599/701/350 600/702/350 598/700/350
f 601/703/351 602/704/351 600/702/351
f 603/705/352 604/706/352 602/704/352
f 605/707/353 606/708/353 604/706/353
f 607/709/354 608/710/354 606/708/354
f 609/711/355 610/712/355 608/710/355
f 611/713/356 612/714/356 610/712/356
f 613/715/357 614/716/357 612/714/357
f 615/717/358 616/718/358 614/716/358
f 617/719/359 618/720/359 616/718/359
f 619/721/360 620/722/360 618/720/360
f 621/723/361 622/724/361 620/722/361
f 623/725/362 624/726/362 622/724/362
f 625/727/363 626/728/363 624/726/363
f 627/729/364 628/730/364 626/728/364
f 629/731/365 630/732/365 628/730/365
f 631/733/366 632/734/366 630/732/366
f 633/735/367 634/736/367 632/734/367
f 635/737/368 636/738/368 634/736/368
f 637/739/369 638/740/369 636/738/369
f 615/741/328 599/742/328 583/743/328
f 639/744/370 640/745/370 638/740/370
f 641/746/371 578/683/371 640/747/371
f 608/748/324 624/749/324 640/747/324
f 2/1/1 4/4/1 3/2/1
f 4/4/2 6/6/2 5/5/2
f 6/6/3 8/8/3 7/7/3
f 8/8/4 10/10/4 9/9/4
f 10/10/5 12/12/5 11/11/5
f 12/12/6 14/14/6 13/13/6
f 14/14/7 16/750/7 15/15/7
f 15/15/8 16/750/8 18/16/8
f 17/17/9 18/16/9 20/18/9
f 19/19/10 20/18/10 22/20/10
f 21/21/11 22/20/11 24/22/11
f 23/23/12 24/22/12 26/24/12
f 25/25/13 26/24/13 28/26/13
f 27/27/14 28/26/14 30/28/14
f 29/29/15 30/28/15 32/30/15
f 31/31/16 32/30/16 34/32/16
f 33/33/17 34/32/17 36/34/17
f 35/35/372 36/34/372 38/36/372
f 38/38/19 40/41/19 39/39/19
f 40/41/20 42/43/20 41/42/20
f 42/43/21 44/45/21 43/44/21
f 44/45/22 46/47/22 45/46/22
f 46/47/23 48/49/23 47/48/23
f 48/49/24 50/51/24 49/50/24
f 50/51/25 52/53/25 51/52/25
f 52/53/26 54/55/26 53/54/26
f 54/55/27 56/57/27 55/56/27
f 56/57/28 58/59/28 57/58/28
f 58/59/373 60/61/373 59/60/373
f 60/61/30 62/65/30 61/62/30
f 6/64/31 4/751/31 2/752/31
f 2/752/31 64/753/31 62/754/31
f 62/754/31 60/755/31 58/756/31
f 58/756/31 56/757/31 54/758/31
f 54/758/31 52/759/31 50/760/31
f 50/760/31 48/761/31 46/762/31
f 46/762/31 44/763/31 42/764/31
f 42/764/31 40/765/31 38/36/31
f 38/36/31 36/34/31 34/766/31
f 34/766/31 32/767/31 30/768/31
f 30/768/31 28/769/31 26/770/31
f 26/770/31 24/771/31 22/63/31
f 22/63/31 20/772/31 18/773/31
f 18/773/31 16/774/31 14/775/31
f 14/775/31 12/776/31 10/777/31
f 10/777/31 8/778/31 6/64/31
f 6/64/31 2/752/31 62/754/31
f 62/754/31 58/756/31 54/758/31
f 54/758/31 50/760/31 46/762/31
f 46/762/31 42/764/31 38/36/31
f 38/36/31 34/766/31 30/768/31
f 30/768/31 26/770/31 22/63/31
f 22/63/31 18/773/31 14/775/31
f 14/775/31 10/777/31 6/64/31
f 6/64/31 62/754/31 54/758/31
f 54/758/31 46/762/31 38/36/31
f 38/36/31 30/768/31 22/63/31
f 22/63/31 14/775/31 6/64/31
f 6/64/31 54/758/31 38/36/31
f 62/65/32 64/67/32 63/66/32
f 64/67/33 2/1/33 1/3/33
f 63/70/67 1/779/67 3/780/67
f 3/780/67 5/781/67 7/782/67
f 7/782/67 9/783/67 11/784/67
f 11/784/67 13/785/67 15/786/67
f 15/786/67 17/787/67 19/788/67
f 19/788/67 21/789/67 23/790/67
f 23/790/67 25/791/67 27/792/67
f 27/792/67 29/793/67 31/68/67
f 31/68/67 33/794/67 35/35/67
f 35/35/374 37/37/374 39/795/374
f 39/795/67 41/796/67 43/797/67
f 43/797/67 45/798/67 47/69/67
f 47/69/67 49/799/67 51/800/67
f 51/800/67 53/801/67 55/802/67
f 55/802/375 57/803/375 59/804/375
f 59/804/67 61/805/67 63/70/67
f 63/70/67 3/780/67 7/782/67
f 7/782/67 11/784/67 15/786/67
f 15/786/67 19/788/67 23/790/67
f 23/790/67 27/792/67 31/68/67
f 31/68/376 35/35/376 39/795/376
f 39/795/67 43/797/67 47/69/67
f 47/69/67 51/800/67 55/802/67
f 55/802/377 59/804/377 63/70/377
f 63/70/67 7/782/67 15/786/67
f 15/786/67 23/790/67 31/68/67
f 31/68/378 39/795/378 47/69/378
f 47/69/379 55/802/379 63/70/379
f 63/70/67 15/786/67 31/68/67
f 66/71/35 68/806/35 67/72/35
f 68/74/36 70/807/36 69/75/36
f 70/77/37 72/808/37 71/78/37
f 71/80/38 72/809/38 74/81/38
f 74/83/39 76/810/39 75/84/39
f 76/86/40 78/811/40 77/87/40
f 78/89/41 80/812/41 79/90/41
f 79/92/42 80/813/42 82/93/42
f 82/95/43 84/814/43 83/96/43
f 84/98/44 86/815/44 85/99/44
f 86/101/45 88/816/45 87/102/45
f 88/104/46 90/817/46 89/105/46
f 90/107/47 92/818/47 91/108/47
f 92/110/48 94/819/48 93/111/48
f 94/113/49 96/820/49 95/114/49
f 96/116/50 98/821/50 97/117/50
f 98/119/51 100/822/51 99/120/51
f 100/122/52 102/823/52 101/123/52
f 101/125/53 102/824/53 104/126/53
f 103/128/54 104/825/54 106/129/54
f 105/131/55 106/826/55 108/132/55
f 108/134/56 110/827/56 109/135/56
f 110/137/57 112/828/57 111/138/57
f 111/140/58 112/829/58 114/141/58
f 114/143/59 116/830/59 115/144/59
f 115/146/60 116/831/60 118/147/60
f 117/149/61 118/832/61 120/150/61
f 120/152/62 122/833/62 121/153/62
f 122/155/63 124/834/63 123/156/63
f 124/158/64 126/835/64 125/159/64
f 70/163/31 68/836/31 66/837/31
f 66/837/31 128/838/31 126/839/31
f 126/839/31 124/840/31 122/841/31
f 122/841/31 120/842/31 118/843/31
f 118/843/31 116/844/31 114/845/31
f 114/845/31 112/846/31 110/847/31
f 110/847/31 108/848/31 106/849/31
f 106/849/31 104/850/31 102/161/31
f 102/161/31 100/851/31 98/852/31
f 98/852/31 96/853/31 94/854/31
f 94/854/31 92/855/31 90/856/31
f 90/856/31 88/857/31 86/162/31
f 86/162/31 84/858/31 82/859/31
f 82/859/31 80/860/31 78/861/31
f 78/861/31 76/862/31 74/863/31
f 74/863/31 72/864/31 70/163/31
f 70/163/31 66/837/31 126/839/31
f 126/839/31 122/841/31 118/843/31
f 118/843/31 114/845/31 110/847/31
f 110/847/31 106/849/31 102/161/31
f 102/161/31 98/852/31 94/854/31
f 94/854/31 90/856/31 86/162/31
f 86/162/31 82/859/31 78/861/31
f 78/861/31 74/863/31 70/163/31
f 70/163/31 126/839/31 118/843/31
f 118/843/31 110/847/31 102/161/31
f 102/161/31 94/854/31 86/162/31
f 86/162/31 78/861/31 70/163/31
f 70/163/31 118/843/31 102/161/31
f 126/164/65 128/865/65 127/165/65
f 127/167/66 128/866/66 66/168/66
f 127/172/67 65/867/67 67/868/67
f 67/868/67 69/869/67 71/870/67
f 71/870/67 73/871/67 75/872/67
f 75/872/67 77/873/67 79/874/67
f 79/874/67 81/875/67 83/876/67
f 83/876/67 85/877/67 87/878/67
f 87/878/67 89/879/67 91/880/67
f 91/880/67 93/881/67 95/170/67
f 95/170/67 97/882/67 99/883/67
f 99/883/67 101/884/67 103/885/67
f 103/885/67 105/886/67 107/887/67
f 107/887/67 109/888/67 111/171/67
f 111/171/67 113/889/67 115/890/67
f 115/890/67 117/891/67 119/892/67
f 119/892/67 121/893/67 123/894/67
f 123/894/67 125/895/67 127/172/67
f 127/172/67 67/868/67 71/870/67
f 71/870/67 75/872/67 79/874/67
f 79/874/67 83/876/67 87/878/67
f 87/878/67 91/880/67 95/170/67
f 95/170/67 99/883/67 103/885/67
f 103/885/67 107/887/67 111/171/67
f 111/171/67 115/890/67 119/892/67
f 119/892/67 123/894/67 127/172/67
f 127/172/67 71/870/67 79/874/67
f 79/874/67 87/878/67 95/170/67
f 95/170/67 103/885/67 111/171/67
f 111/171/67 119/892/67 127/172/67
f 127/172/67 79/874/67 95/170/67
f 383/173/68 382/188/68 133/174/68
f 129/176/69 383/173/69 134/175/69
f 384/178/70 129/176/70 135/177/70
f 384/178/71 136/179/71 137/180/71
f 385/182/72 130/181/72 137/180/72
f 385/182/73 138/183/73 139/184/73
f 131/185/380 139/184/380 140/186/380
f 139/184/76 147/198/76 148/190/76
f 133/174/78 141/192/78 142/193/78
f 134/175/79 142/193/79 143/194/79
f 136/179/80 135/177/80 143/194/80
f 136/179/81 144/195/81 145/196/81
f 137/180/82 145/196/82 146/197/82
f 138/183/83 146/197/83 147/198/83
f 144/195/84 152/207/84 153/199/84
f 145/196/85 153/199/85 154/200/85
f 146/197/86 154/200/86 155/201/86
f 147/198/87 155/201/87 156/202/87
f 141/192/89 149/204/89 150/205/89
f 142/193/90 150/205/90 151/206/90
f 144/195/91 143/194/91 151/206/91
f 149/204/93 157/209/93 158/210/93
f 150/205/94 158/210/94 159/211/94
f 151/206/95 159/211/95 160/212/95
f 153/199/96 152/207/96 160/212/96
f 153/199/97 161/213/97 162/214/97
f 154/200/98 162/214/98 163/215/98
f 156/202/99 155/201/99 163/215/99
f 161/213/100 160/212/100 168/217/100
f 161/213/101 169/218/101 170/219/101
f 162/214/102 170/219/102 171/220/102
f 163/215/103 171/220/103 172/221/103
f 157/209/105 165/223/105 166/224/105
f 158/210/106 166/224/106 167/225/106
f 159/211/107 167/225/107 168/217/107
f 165/223/108 174/234/108 175/226/108
f 166/224/109 175/226/109 176/227/109
f 167/225/110 176/227/110 177/228/110
f 168/217/111 177/228/111 178/229/111
f 169/218/112 178/229/112 179/230/112
f 171/220/113 170/219/113 179/230/113
f 171/220/114 180/231/114 181/232/114
f 178/229/116 186/243/116 187/235/116
f 179/230/117 187/235/117 188/236/117
f 180/231/118 188/236/118 189/237/118
f 174/234/120 182/239/120 183/240/120
f 176/227/121 175/226/121 183/240/121
f 176/227/122 184/241/122 185/242/122
f 178/229/123 177/228/123 185/242/123
f 182/239/124 190/252/124 191/244/124
f 183/240/125 191/244/125 192/245/125
f 184/241/126 192/245/126 193/246/126
f 186/243/127 185/242/127 193/246/127
f 186/243/128 194/247/128 195/248/128
f 188/236/129 187/235/129 195/248/129
f 188/236/130 196/249/130 197/250/130
f 194/247/132 202/261/132 203/253/132
f 196/249/133 195/248/133 203/253/133
f 196/249/134 204/254/134 205/255/134
f 190/252/136 198/257/136 199/258/136
f 191/244/137 199/258/137 200/259/137
f 192/245/138 200/259/138 201/260/138
f 193/246/139 201/260/139 202/261/139
f 199/258/140 207/270/140 208/262/140
f 200/259/141 208/262/141 209/263/141
f 202/261/142 201/260/142 209/263/142
f 202/261/143 210/264/143 211/265/143
f 204/254/144 203/253/144 211/265/144
f 204/254/145 212/266/145 213/267/145
f 198/257/147 206/269/147 207/270/147
f 212/266/148 211/265/148 219/271/148
f 212/266/149 220/272/149 221/273/149
f 206/269/151 214/275/151 215/276/151
f 207/270/152 215/276/152 216/277/152
f 208/262/153 216/277/153 217/278/153
f 210/264/154 209/263/154 217/278/154
f 210/264/155 218/279/155 219/271/155
f 216/277/156 224/288/156 225/280/156
f 218/279/157 217/278/157 225/280/157
f 218/279/158 226/281/158 227/282/158
f 219/271/159 227/282/159 228/283/159
f 221/273/160 220/272/160 228/283/160
f 214/275/162 222/286/162 223/287/162
f 215/276/163 223/287/163 224/288/163
f 229/284/164 228/283/164 236/289/164
f 223/287/166 222/286/166 230/292/166
f 223/287/167 231/293/167 232/294/167
f 225/280/168 224/288/168 232/294/168
f 226/281/169 225/280/169 233/295/169
f 226/281/170 234/296/170 235/297/170
f 227/282/171 235/297/171 236/289/171
f 232/294/172 240/306/172 241/298/172
f 234/296/173 233/295/173 241/298/173
f 234/296/174 242/299/174 243/300/174
f 236/289/175 235/297/175 243/300/175
f 237/290/176 236/289/176 244/301/176
f 231/293/178 230/292/178 238/304/178
f 231/293/179 239/305/179 240/306/179
f 245/302/180 244/301/180 252/307/180
f 238/304/182 246/310/182 247/311/182
f 239/305/183 247/311/183 248/312/183
f 240/306/184 248/312/184 249/313/184
f 241/298/185 249/313/185 250/314/185
f 242/299/186 250/314/186 251/315/186
f 243/300/187 251/315/187 252/307/187
f 249/313/188 257/324/188 258/316/188
f 250/314/189 258/316/189 259/317/189
f 252/307/190 251/315/190 259/317/190
f 253/308/191 252/307/191 260/318/191
f 246/310/193 254/321/193 255/322/193
f 247/311/194 255/322/194 256/323/194
f 248/312/195 256/323/195 257/324/195
f 255/322/197 254/321/197 262/326/197
f 256/323/198 255/322/198 263/327/198
f 256/323/199 264/328/199 265/329/199
f 258/316/200 257/324/200 265/329/200
f 258/316/201 266/330/201 267/331/201
f 260/318/202 259/317/202 267/331/202
f 261/319/203 260/318/203 268/332/203
f 266/330/204 265/329/204 273/334/204
f 266/330/205 274/335/205 275/336/205
f 267/331/206 275/336/206 276/337/206
f 269/333/207 268/332/207 276/337/207
f 262/326/209 270/340/209 271/341/209
f 263/327/210 271/341/210 272/342/210
f 264/328/211 272/342/211 273/334/211
f 270/340/212 278/351/212 279/343/212
f 271/341/213 279/343/213 280/344/213
f 272/342/214 280/344/214 281/345/214
f 274/335/215 273/334/215 281/345/215
f 274/335/216 282/346/216 283/347/216
f 275/336/217 283/347/217 284/348/217
f 277/338/218 276/337/218 284/348/218
f 282/346/220 290/360/220 291/352/220
f 283/347/221 291/352/221 292/353/221
f 285/349/222 284/348/222 292/353/222
f 278/351/224 286/356/224 287/357/224
f 279/343/225 287/357/225 288/358/225
f 280/344/226 288/358/226 289/359/226
f 281/345/227 289/359/227 290/360/227
f 287/357/228 295/369/228 296/361/228
f 288/358/229 296/361/229 297/362/229
f 290/360/230 289/359/230 297/362/230
f 290/360/231 298/363/231 299/364/231
f 292/353/232 291/352/232 299/364/232
f 293/354/233 292/353/233 300/365/233
f 286/356/235 294/368/235 295/369/235
f 300/365/236 299/364/236 307/370/236
f 301/366/237 300/365/237 308/371/237
f 294/368/239 302/374/239 303/375/239
f 295/369/240 303/375/240 304/376/240
f 296/361/241 304/376/241 305/377/241
f 298/363/242 297/362/242 305/377/242
f 298/363/243 306/378/243 307/370/243
f 303/375/244 311/387/244 312/379/244
f 304/376/245 312/379/245 313/380/245
f 306/378/246 305/377/246 313/380/246
f 306/378/247 314/381/247 315/382/247
f 308/371/248 307/370/248 315/382/248
f 309/372/249 308/371/249 316/383/249
f 302/374/251 310/386/251 311/387/251
f 316/383/252 315/382/252 323/388/252
f 317/384/253 316/383/253 324/389/253
f 310/386/255 318/392/255 319/393/255
f 311/387/256 319/393/256 320/394/256
f 312/379/257 320/394/257 321/395/257
f 314/381/258 313/380/258 321/395/258
f 314/381/259 322/396/259 323/388/259
f 320/397/260 328/413/260 329/398/260
f 322/400/261 321/399/261 329/398/261
f 322/400/262 330/401/262 331/402/262
f 324/404/263 323/403/263 331/402/263
f 325/406/264 324/404/264 332/405/264
f 318/408/266 326/410/266 327/411/266
f 320/397/267 319/412/267 327/411/267
f 333/407/268 332/405/268 340/414/268
f 326/410/270 334/417/270 335/418/270
f 327/411/271 335/418/271 336/419/271
f 328/413/272 336/419/272 337/420/272
f 330/401/273 329/398/273 337/420/273
f 330/401/274 338/421/274 339/422/274
f 332/405/275 331/402/275 339/422/275
f 336/419/276 344/431/276 345/423/276
f 338/421/277 337/420/277 345/423/277
f 338/421/278 346/424/278 347/425/278
f 340/414/279 339/422/279 347/425/279
f 341/415/280 340/414/280 348/426/280
f 334/417/282 342/429/282 343/430/282
f 335/418/283 343/430/283 344/431/283
f 349/427/284 348/426/284 356/432/284
f 342/429/286 350/435/286 351/436/286
f 344/431/287 343/430/287 351/436/287
f 344/431/288 352/437/288 353/438/288
f 346/424/289 345/423/289 353/438/289
f 346/424/290 354/439/290 355/440/290
f 348/426/291 347/425/291 355/440/291
f 354/439/292 353/438/292 361/441/292
f 354/439/293 362/442/293 363/443/293
f 356/432/294 355/440/294 363/443/294
f 357/433/295 356/432/295 364/444/295
f 350/435/297 358/447/297 359/448/297
f 352/437/298 351/436/298 359/448/298
f 352/437/299 360/449/299 361/441/299
f 358/447/300 366/458/300 367/450/300
f 360/449/301 359/448/301 367/450/301
f 360/449/302 368/451/302 369/452/302
f 362/442/303 361/441/303 369/452/303
f 362/442/304 370/453/304 371/454/304
f 364/444/305 363/443/305 371/454/305
f 365/445/306 364/444/306 372/455/306
f 370/453/308 378/467/308 379/459/308
f 372/455/309 371/454/309 379/459/309
f 373/456/310 372/455/310 380/460/310
f 366/458/312 374/463/312 375/464/312
f 367/450/313 375/464/313 376/465/313
f 368/451/314 376/465/314 377/466/314
f 370/453/315 369/452/315 377/466/315
f 375/464/316 374/463/316 382/188/316
f 376/465/317 375/464/317 383/173/317
f 377/466/318 376/465/318 129/176/318
f 378/467/319 377/466/319 384/178/319
f 378/467/320 130/181/320 385/182/320
f 380/460/321 379/459/321 385/182/321
f 381/461/322 380/460/322 131/185/322
f 388/469/324 401/896/324 389/897/324
f 389/897/324 394/898/324 395/476/324
f 388/469/324 389/897/324 395/476/324
f 388/469/324 395/476/324 391/470/324
f 397/471/31 400/474/31 388/469/31
f 399/472/325 386/899/325 388/473/325
f 391/470/67 390/477/67 396/475/67
f 395/476/326 392/900/326 390/477/326
f 393/478/327 392/900/327 395/476/327
f 389/480/31 387/485/31 393/478/31
f 390/477/328 392/900/328 393/901/328
f 393/901/328 387/902/328 398/903/328
f 393/901/328 398/903/328 386/481/328
f 390/477/328 393/901/328 386/481/328
f 386/481/31 399/472/31 396/475/31
f 386/482/329 398/486/329 401/483/329
f 400/474/31 397/471/31 396/475/31
f 387/485/330 389/480/330 401/483/330
f 404/487/330 417/904/330 405/905/330
f 405/905/330 410/906/330 411/494/330
f 404/487/330 405/905/330 411/494/330
f 404/487/330 411/494/330 407/488/330
f 413/489/31 416/492/31 404/487/31
f 415/490/331 402/907/331 404/491/331
f 407/488/67 406/495/67 412/493/67
f 411/494/324 408/908/324 406/495/324
f 409/496/332 408/908/332 411/494/332
f 405/498/31 403/503/31 409/496/31
f 406/495/326 408/908/326 409/909/326
f 409/909/326 403/910/326 414/911/326
f 409/909/326 414/911/326 402/499/326
f 406/495/326 409/909/326 402/499/326
f 402/499/31 415/490/31 412/493/31
f 402/500/333 414/504/333 417/501/333
f 416/492/31 413/489/31 412/493/31
f 403/503/328 405/498/328 417/501/328
f 420/505/328 433/912/328 421/913/328
f 421/913/328 426/914/328 427/513/328
f 420/505/328 421/913/328 427/513/328
f 420/505/328 427/513/328 423/506/328
f 429/507/31 432/510/31 420/505/31
f 431/508/334 418/915/334 420/509/334
f 429/507/67 423/506/67 422/511/67
f 427/513/330 424/515/330 422/511/330
f 426/514/335 425/517/335 424/515/335
f 421/516/31 419/522/31 425/517/31
f 422/511/324 424/515/324 425/916/324
f 425/916/324 419/917/324 430/918/324
f 425/916/324 430/918/324 418/518/324
f 422/511/324 425/916/324 418/518/324
f 418/518/31 431/508/31 428/512/31
f 418/519/336 430/523/336 433/520/336
f 432/510/31 429/507/31 428/512/31
f 419/522/326 421/516/326 433/520/326
f 436/524/326 449/919/326 437/920/326
f 437/920/326 442/921/326 443/531/326
f 436/524/326 437/920/326 443/531/326
f 436/524/326 443/531/326 439/525/326
f 445/526/31 448/529/31 436/524/31
f 447/527/337 434/922/337 436/528/337
f 439/525/67 438/532/67 444/530/67
f 443/531/328 440/923/328 438/532/328
f 441/533/338 440/923/338 443/531/338
f 437/535/31 435/540/31 441/533/31
f 438/532/330 440/923/330 441/924/330
f 441/924/330 435/925/330 446/926/330
f 441/924/330 446/926/330 434/536/330
f 438/532/330 441/924/330 434/536/330
f 434/536/31 447/527/31 444/530/31
f 434/537/339 446/541/339 449/538/339
f 448/529/31 445/526/31 444/530/31
f 435/540/324 437/535/324 449/538/324
f 452/542/340 456/927/340 454/543/340
f 456/545/341 460/548/341 458/546/341
f 460/548/342 464/550/342 462/549/342
f 464/550/343 468/552/343 466/551/343
f 468/552/344 472/928/344 470/553/344
f 470/553/345 472/928/345 476/554/345
f 476/554/346 481/557/346 479/556/346
f 481/557/347 484/559/347 483/558/347
f 484/559/348 488/561/348 486/560/348
f 488/561/349 492/563/349 490/562/349
f 492/563/350 496/565/350 494/564/350
f 496/565/351 500/567/351 498/566/351
f 500/567/352 504/569/352 502/568/352
f 504/569/353 508/571/353 506/570/353
f 508/571/354 512/573/354 510/572/354
f 512/573/355 517/575/355 514/574/355
f 517/575/356 520/577/356 519/576/356
f 520/577/357 524/579/357 523/578/357
f 524/579/358 528/581/358 527/580/358
f 528/581/359 532/583/359 531/582/359
f 532/583/360 536/585/360 535/584/360
f 536/585/361 541/587/361 539/586/361
f 541/587/362 544/589/362 542/588/362
f 544/589/363 548/591/363 547/590/363
f 548/591/364 552/593/364 551/592/364
f 552/593/365 556/595/365 554/594/365
f 556/595/366 560/597/366 559/596/366
f 560/597/367 565/599/367 562/598/367
f 565/599/368 569/601/368 566/600/368
f 569/601/369 573/609/369 570/602/369
f 453/929/328 457/930/328 456/931/328
f 456/931/328 452/932/328 577/933/328
f 577/933/328 573/934/328 569/935/328
f 569/935/328 565/936/328 560/937/328
f 560/937/328 556/938/328 552/603/328
f 552/603/328 548/939/328 544/940/328
f 544/940/328 541/941/328 536/942/328
f 536/942/328 532/943/328 528/944/328
f 528/944/328 524/945/328 520/946/328
f 520/946/328 521/947/328 525/948/328
f 520/946/328 525/948/328 529/949/328
f 536/942/328 528/944/328 520/946/328
f 552/603/328 544/940/328 536/942/328
f 569/935/328 560/937/328 552/603/328
f 456/931/328 577/933/328 569/935/328
f 576/950/328 453/929/328 456/931/328
f 572/951/328 576/950/328 456/931/328
f 536/942/328 520/946/328 529/949/328
f 536/942/328 529/949/328 533/952/328
f 572/951/328 456/931/328 569/935/328
f 568/953/328 572/951/328 569/935/328
f 536/942/328 533/952/328 537/954/328
f 536/942/328 537/954/328 540/955/328
f 564/956/328 568/953/328 569/935/328
f 561/957/328 564/956/328 569/935/328
f 552/603/328 536/942/328 540/955/328
f 552/603/328 540/955/328 545/958/328
f 561/957/328 569/935/328 552/603/328
f 557/959/328 561/957/328 552/603/328
f 552/603/328 545/958/328 549/604/328
f 553/605/328 557/959/328 552/603/328
f 516/960/328 521/947/328 520/946/328
f 520/946/328 517/961/328 512/962/328
f 512/962/328 508/963/328 504/964/328
f 504/964/328 500/965/328 496/966/328
f 496/966/328 492/967/328 488/606/328
f 488/606/328 484/968/328 481/969/328
f 481/969/328 476/970/328 472/971/328
f 472/971/328 468/972/328 464/973/328
f 464/973/328 460/974/328 456/931/328
f 456/931/328 457/930/328 461/975/328
f 456/931/328 461/975/328 465/976/328
f 472/971/328 464/973/328 456/931/328
f 488/606/328 481/969/328 472/971/328
f 504/964/328 496/966/328 488/606/328
f 520/946/328 512/962/328 504/964/328
f 513/977/328 516/960/328 520/946/328
f 509/978/328 513/977/328 520/946/328
f 472/971/328 456/931/328 465/976/328
f 472/971/328 465/976/328 469/979/328
f 509/978/328 520/946/328 504/964/328
f 505/980/328 509/978/328 504/964/328
f 472/971/328 469/979/328 473/981/328
f 472/971/328 473/981/328 477/982/328
f 501/983/328 505/980/328 504/964/328
f 497/984/328 501/983/328 504/964/328
f 488/606/328 472/971/328 477/982/328
f 488/606/328 477/982/328 480/985/328
f 497/984/328 504/964/328 488/606/328
f 493/986/328 497/984/328 488/606/328
f 488/606/328 480/985/328 485/607/328
f 489/608/328 493/986/328 488/606/328
f 573/609/370 577/611/370 574/610/370
f 577/611/371 452/542/371 450/544/371
f 558/987/324 555/988/324 554/612/324
f 554/612/324 559/989/324 562/990/324
f 562/990/324 566/991/324 570/613/324
f 570/613/324 571/992/324 567/993/324
f 563/614/324 558/987/324 554/612/324
f 570/613/324 567/993/324 563/614/324
f 554/612/324 562/990/324 570/613/324
f 575/994/324 571/992/324 570/613/324
f 570/613/324 574/995/324 450/996/324
f 450/996/324 454/997/324 458/998/324
f 458/998/324 462/999/324 466/1000/324
f 466/1000/324 470/1001/324 475/1002/324
f 475/1002/324 479/1003/324 483/1004/324
f 483/1004/324 486/1005/324 490/615/324
f 490/615/324 494/1006/324 498/1007/324
f 498/1007/324 502/1008/324 506/616/324
f 506/616/324 510/1009/324 514/1010/324
f 514/1010/324 519/1011/324 523/1012/324
f 523/1012/324 527/1013/324 531/1014/324
f 531/1014/324 535/1015/324 539/1016/324
f 539/1016/324 542/1017/324 547/1018/324
f 547/1018/324 551/1019/324 554/612/324
f 554/612/324 555/988/324 550/1020/324
f 554/612/324 550/1020/324 546/1021/324
f 539/1016/324 547/1018/324 554/612/324
f 523/1012/324 531/1014/324 539/1016/324
f 506/616/324 514/1010/324 523/1012/324
f 490/615/324 498/1007/324 506/616/324
f 475/1002/324 483/1004/324 490/615/324
f 458/998/324 466/1000/324 475/1002/324
f 570/613/324 450/996/324 458/998/324
f 451/1022/324 575/994/324 570/613/324
f 455/1023/324 451/1022/324 570/613/324
f 539/1016/324 554/612/324 546/1021/324
f 539/1016/324 546/1021/324 543/1024/324
f 455/1023/324 570/613/324 458/998/324
f 459/1025/324 455/1023/324 458/998/324
f 539/1016/324 543/1024/324 538/1026/324
f 539/1016/324 538/1026/324 534/1027/324
f 463/1028/324 459/1025/324 458/998/324
f 467/1029/324 463/1028/324 458/998/324
f 523/1012/324 539/1016/324 534/1027/324
f 523/1012/324 534/1027/324 530/1030/324
f 467/1029/324 458/998/324 475/1002/324
f 471/1031/324 467/1029/324 475/1002/324
f 523/1012/324 530/1030/324 526/1032/324
f 523/1012/324 526/1032/324 522/1033/324
f 474/1034/324 471/1031/324 475/1002/324
f 478/1035/324 474/1034/324 475/1002/324
f 523/1012/324 522/1033/324 518/1036/324
f 523/1012/324 518/1036/324 515/1037/324
f 478/1035/324 475/1002/324 490/615/324
f 482/1038/324 478/1035/324 490/615/324
f 506/616/324 523/1012/324 515/1037/324
f 506/616/324 515/1037/324 511/1039/324
f 487/1040/324 482/1038/324 490/615/324
f 491/1041/324 487/1040/324 490/615/324
f 506/616/324 511/1039/324 507/1042/324
f 506/616/324 507/1042/324 503/1043/324
f 495/1044/324 491/1041/324 490/615/324
f 506/616/324 503/1043/324 499/617/324
f 499/617/324 495/1044/324 490/615/324
f 451/618/356 455/1045/356 457/619/356
f 455/621/357 459/624/357 461/622/357
f 459/624/358 463/626/358 465/625/358
f 463/626/359 467/629/359 469/627/359
f 473/628/360 469/627/360 467/629/360
f 473/628/361 471/630/361 474/631/361
f 478/633/362 480/634/362 477/632/362
f 480/634/363 478/633/363 482/635/363
f 485/636/364 482/635/364 487/637/364
f 489/638/365 487/637/365 491/639/365
f 493/640/366 491/639/366 495/641/366
f 499/643/367 501/644/367 497/642/367
f 501/644/368 499/643/368 503/645/368
f 505/646/369 503/645/369 507/647/369
f 511/649/370 513/650/370 509/648/370
f 513/650/371 511/649/371 515/651/371
f 516/652/340 515/651/340 518/653/340
f 521/654/341 518/653/341 522/655/341
f 525/656/342 522/655/342 526/657/342
f 530/659/343 533/1046/343 529/658/343
f 537/660/344 533/1046/344 530/659/344
f 534/661/345 538/663/345 540/662/345
f 538/663/346 543/666/346 545/664/346
f 549/665/347 545/664/347 543/666/347
f 546/667/348 550/669/348 553/668/348
f 550/669/349 555/671/349 557/670/349
f 555/671/350 558/1047/350 561/672/350
f 561/672/351 558/1047/351 563/673/351
f 568/675/352 564/674/352 563/673/352
f 567/676/353 571/678/353 572/677/353
f 571/678/354 575/680/354 576/679/354
f 453/620/355 576/679/355 575/680/355
f 579/681/340 581/1048/340 580/682/340
f 580/682/341 581/1048/341 583/684/341
f 582/685/342 583/684/342 585/686/342
f 585/686/343 587/689/343 586/688/343
f 587/689/344 589/691/344 588/690/344
f 589/691/345 591/693/345 590/692/345
f 591/693/346 593/695/346 592/694/346
f 593/695/347 595/697/347 594/696/347
f 595/697/348 597/699/348 596/698/348
f 597/699/349 599/701/349 598/700/349
f 599/701/350 601/703/350 600/702/350
f 601/703/351 603/705/351 602/704/351
f 603/705/352 605/707/352 604/706/352
f 605/707/353 607/709/353 606/708/353
f 607/709/354 609/711/354 608/710/354
f 609/711/355 611/713/355 610/712/355
f 611/713/356 613/715/356 612/714/356
f 613/715/357 615/717/357 614/716/357
f 615/717/358 617/719/358 616/718/358
f 617/719/359 619/721/359 618/720/359
f 619/721/360 621/723/360 620/722/360
f 621/723/361 623/725/361 622/724/361
f 623/725/362 625/727/362 624/726/362
f 625/727/363 627/729/363 626/728/363
f 627/729/364 629/731/364 628/730/364
f 629/731/365 631/733/365 630/732/365
f 631/733/366 633/735/366 632/734/366
f 633/735/367 635/737/367 634/736/367
f 635/737/368 637/739/368 636/738/368
f 637/739/369 639/744/369 638/740/369
f 583/743/328 581/1049/328 579/681/328
f 579/681/328 641/746/328 639/1050/328
f 639/1050/328 637/1051/328 635/1052/328
f 635/1052/328 633/1053/328 631/1054/328
f 631/1054/328 629/1055/328 627/1056/328
f 627/1056/328 625/1057/328 623/1058/328
f 623/1058/328 621/1059/328 619/1060/328
f 619/1060/328 617/1061/328 615/741/328
f 615/741/328 613/1062/328 611/1063/328
f 611/1063/328 609/1064/328 607/1065/328
f 607/1065/328 605/1066/328 603/1067/328
f 603/1067/328 601/1068/328 599/742/328
f 599/742/328 597/1069/328 595/1070/328
f 595/1070/328 593/1071/328 591/1072/328
f 591/1072/328 589/1073/328 587/1074/328
f 587/1074/328 585/1075/328 583/743/328
f 583/743/328 579/681/328 639/1050/328
f 639/1050/328 635/1052/328 631/1054/328
f 631/1054/328 627/1056/328 623/1058/328
f 623/1058/328 619/1060/328 615/741/328
f 615/741/328 611/1063/328 607/1065/328
f 607/1065/328 603/1067/328 599/742/328
f 599/742/328 595/1070/328 591/1072/328
f 591/1072/328 587/1074/328 583/743/328
f 583/743/328 639/1050/328 631/1054/328
f 631/1054/328 623/1058/328 615/741/328
f 615/741/328 607/1065/328 599/742/328
f 599/742/328 591/1072/328 583/743/328
f 583/743/328 631/1054/328 615/741/328
f 639/744/370 641/1076/370 640/745/370
f 641/746/371 579/681/371 578/683/371
f 640/747/324 578/683/324 580/1077/324
f 580/1077/324 582/1078/324 584/1079/324
f 584/1079/324 586/1080/324 588/1081/324
f 588/1081/324 590/1082/324 592/1083/324
f 592/1083/324 594/1084/324 596/1085/324
f 596/1085/324 598/1086/324 600/1087/324
f 600/1087/324 602/1088/324 604/1089/324
f 604/1089/324 606/1090/324 608/748/324
f 608/748/324 610/1091/324 612/1092/324
f 612/1092/324 614/1093/324 616/1094/324
f 616/1094/324 618/1095/324 620/1096/324
f 620/1096/324 622/1097/324 624/749/324
f 624/749/324 626/1098/324 628/1099/324
f 628/1099/324 630/1100/324 632/1101/324
f 632/1101/324 634/1102/324 636/1103/324
f 636/1103/324 638/1104/324 640/747/324
f 640/747/324 580/1077/324 584/1079/324
f 584/1079/324 588/1081/324 592/1083/324
f 592/1083/324 596/1085/324 600/1087/324
f 600/1087/324 604/1089/324 608/748/324
f 608/748/324 612/1092/324 616/1094/324
f 616/1094/324 620/1096/324 624/749/324
f 624/749/324 628/1099/324 632/1101/324
f 632/1101/324 636/1103/324 640/747/324
f 640/747/324 584/1079/324 592/1083/324
f 592/1083/324 600/1087/324 608/748/324
f 608/748/324 616/1094/324 624/749/324
f 624/749/324 632/1101/324 640/747/324
f 640/747/324 592/1083/324 608/748/324
